<svg width="28" height="28" viewBox="0 0 28 28" fill="none" xmlns="http://www.w3.org/2000/svg">
<path d="M7.02071 14.8513H5.76503C5.43563 14.8513 5.13827 15.0474 5.00796 15.3495L1.53189 23.4434L9.78712 19.2271C8.79891 17.8597 7.82115 16.3516 7.02071 14.8513Z" fill="#F1292C"/>
<path d="M22.9918 15.3495C22.8617 15.0474 22.5641 14.8513 22.2349 14.8513H20.9792C19.4677 17.6839 17.2654 20.6112 15.8645 22.2217C14.8792 23.3518 13.1194 23.3505 12.1357 22.2217C12.0351 22.1061 11.5098 21.498 10.7862 20.5627L9.29793 21.3232L14.9277 26.9421L25.5952 21.4119L22.9918 15.3495Z" fill="#F1292C"/>
<path d="M0.516323 25.8089L0.0672883 26.8546C-0.165133 27.3957 0.23306 28 0.824154 28H12.9129C12.9885 27.9438 12.9893 27.9472 13.3952 27.7368L7.75707 22.1104L0.516323 25.8089Z" fill="#F1292C"/>
<path d="M27.9327 26.8546L26.2459 22.9269L16.4603 28H27.1758C27.7656 28 28.1655 27.3967 27.9327 26.8546Z" fill="#F1292C"/>
<path d="M14.8235 7.40056C14.8235 6.94725 14.4539 6.57875 14 6.57875C13.5458 6.57875 13.1765 6.94725 13.1765 7.40056C13.1765 7.85365 13.5458 8.22237 14 8.22237C14.4539 8.22237 14.8235 7.85365 14.8235 7.40056Z" fill="#F1292C"/>
<path d="M14.6214 21.0884C14.8987 20.7701 21.4114 13.2365 21.4114 8.05788C21.4114 -2.6207 6.58855 -2.75102 6.58855 8.05788C6.58855 13.2365 13.1013 20.7701 13.3786 21.0884C13.7069 21.4651 14.2937 21.4646 14.6214 21.0884ZM11.5294 7.40056C11.5294 6.04106 12.6377 4.93514 14 4.93514C15.362 4.93514 16.4703 6.04106 16.4703 7.40056C16.4703 8.75984 15.362 9.86577 14 9.86577C12.6377 9.86577 11.5294 8.75984 11.5294 7.40056Z" fill="#F1292C"/>
</svg>
