<svg width="60" height="60" viewBox="0 0 60 60" fill="none" xmlns="http://www.w3.org/2000/svg">
<path d="M30.62 0.2175C30.26 -0.0725 29.74 -0.0725 29.38 0.2175L0.38 23.2175C0.14 23.4075 0 23.6975 0 23.9975V58.9975C0 59.5475 0.45 59.9975 1 59.9975H59C59.55 59.9975 60 59.5475 60 58.9975V23.9975C60 23.6875 59.86 23.4075 59.62 23.2175L30.62 0.2175ZM29 57.9975H19V49.9975H21V52.9975C21 53.5475 21.45 53.9975 22 53.9975H26C26.55 53.9975 27 53.5475 27 52.9975V49.9975H29V57.9975ZM23 51.9975V49.9975H25V51.9975H23ZM25 47.9975V39.9975H27V42.9975C27 43.5475 27.45 43.9975 28 43.9975H32C32.55 43.9975 33 43.5475 33 42.9975V39.9975H35V47.9975H25ZM29 41.9975V39.9975H31V41.9975H29ZM37 49.9975V51.9975H35V49.9975H37ZM41 57.9975H31V49.9975H33V52.9975C33 53.5475 33.45 53.9975 34 53.9975H38C38.55 53.9975 39 53.5475 39 52.9975V49.9975H41V57.9975ZM52 57.9975H43V48.9975C43 48.4475 42.55 47.9975 42 47.9975H37V38.9975C37 38.4475 36.55 37.9975 36 37.9975H24C23.45 37.9975 23 38.4475 23 38.9975V47.9975H18C17.45 47.9975 17 48.4475 17 48.9975V57.9975H8V35.9975H52V57.9975ZM52 33.9975H8V31.9975H52V33.9975ZM52 29.9975H8V27.9975H52V29.9975ZM58 57.9975H54V26.9975C54 26.4475 53.55 25.9975 53 25.9975H7C6.45 25.9975 6 26.4475 6 26.9975V57.9975H2V24.4775L30 2.2775L58 24.4875V57.9975Z" fill="#F1292C"/>
<path d="M33 9.9975H27C26.4477 9.9975 26 10.4452 26 10.9975C26 11.5498 26.4477 11.9975 27 11.9975H33C33.5523 11.9975 34 11.5498 34 10.9975C34 10.4452 33.5523 9.9975 33 9.9975Z" fill="#F1292C"/>
<path d="M38 14.9975H22C21.4477 14.9975 21 15.4452 21 15.9975C21 16.5498 21.4477 16.9975 22 16.9975H38C38.5523 16.9975 39 16.5498 39 15.9975C39 15.4452 38.5523 14.9975 38 14.9975Z" fill="#F1292C"/>
<path d="M43 19.9975H17C16.4477 19.9975 16 20.4452 16 20.9975C16 21.5498 16.4477 21.9975 17 21.9975H43C43.5523 21.9975 44 21.5498 44 20.9975C44 20.4452 43.5523 19.9975 43 19.9975Z" fill="#F1292C"/>
</svg>
