<svg width="70" height="70" viewBox="0 0 70 70" fill="none" xmlns="http://www.w3.org/2000/svg">
<path d="M22.5274 47.477H25.0482C25.9906 47.477 26.7572 46.7104 26.7572 45.768V42.5154H27.4083C28.1121 42.5154 28.7354 42.093 28.9959 41.439C29.2563 40.7851 29.0946 40.0498 28.5837 39.5659L25.1342 36.2976C24.4873 35.6847 23.4957 35.6672 22.8275 36.2574L19.1272 39.5257C18.5898 40.0005 18.4064 40.7407 18.6602 41.4113C18.9139 42.082 19.5413 42.5154 20.2586 42.5154H20.8184V45.768C20.8184 46.7102 21.585 47.477 22.5274 47.477ZM23.9508 38.0014L26.5506 40.4646H25.732C25.1657 40.4646 24.7066 40.9238 24.7066 41.49V45.4262H22.8694V41.49C22.8694 40.9238 22.4103 40.4646 21.844 40.4646H21.162L23.9508 38.0014Z" fill="#F1292C"/>
<path d="M65.1465 0H48.6891C46.0128 0 43.8356 2.18381 43.8356 4.86801V18.1534H14.4117C13.0925 18.1534 12.0191 19.2268 12.0191 20.546V25.3904C12.0191 25.9567 12.4782 26.4158 13.0445 26.4158C13.6108 26.4158 14.0699 25.9567 14.0699 25.3904V20.5461C14.0699 20.3577 14.2233 20.2043 14.4117 20.2043H29.3754V30.5822C29.3754 31.2432 29.7451 31.8328 30.3402 32.1206C30.9352 32.4084 31.627 32.3323 32.1454 31.9218L35 29.6613L37.8546 31.9219C38.1645 32.1673 38.5364 32.2932 38.9126 32.2932C39.1655 32.2932 39.4204 32.2362 39.6596 32.1206C40.2548 31.8328 40.6245 31.2432 40.6245 30.5822V20.2043H43.8354V24.7056C43.8354 25.3853 44.22 25.9818 44.8391 26.2623C45.0695 26.3666 45.3111 26.4178 45.5503 26.4178C45.954 26.4178 46.3503 26.272 46.6711 25.9905L49.7707 23.273C50.2812 22.8253 50.9355 22.5787 51.613 22.5787H65.1465C67.8228 22.5787 70 20.3949 70 17.7107V4.86801C70 2.18381 67.8228 0 65.1465 0ZM38.5738 29.8755L36.0608 27.8854C35.4361 27.3909 34.5636 27.3909 33.9389 27.8856L31.426 29.8755V20.2043H38.5737V29.8755H38.5738ZM67.9492 17.7108C67.9492 19.2642 66.692 20.528 65.1465 20.528H51.6131C50.4379 20.528 49.3035 20.9553 48.4188 21.731L45.8865 23.9513V4.86801C45.8865 3.31461 47.1438 2.05078 48.6892 2.05078H65.1465C66.692 2.05078 67.9492 3.31461 67.9492 4.86801V17.7108Z" fill="#F1292C"/>
<path d="M62.3767 6.62881C61.902 6.09123 61.1617 5.90789 60.4911 6.16164C59.8203 6.41539 59.3868 7.04293 59.3868 7.76002V8.31988H54.4488V7.66883C54.4488 6.965 54.0263 6.34184 53.3724 6.08125C52.7188 5.8208 51.9833 5.9824 51.4992 6.49346L48.231 9.94273C47.6179 10.5898 47.6005 11.5816 48.1906 12.2495L51.4589 15.9497C51.9337 16.4873 52.674 16.6707 53.3445 16.4168C54.0153 16.163 54.4487 15.5356 54.4487 14.8184V14.2585H59.3867V14.9096C59.3867 15.6134 59.8091 16.2366 60.4629 16.4972C60.6703 16.5797 60.8859 16.6199 61.0991 16.6199C61.5579 16.6199 62.0056 16.4339 62.3362 16.085L65.6044 12.6357C66.2174 11.9886 66.2348 10.997 65.6447 10.329L62.3767 6.62881ZM61.4376 14.0522V13.2334C61.4376 12.6671 60.9785 12.208 60.4122 12.208H53.4234C52.8571 12.208 52.398 12.6671 52.398 13.2334V13.9154L49.9347 11.1266L52.398 8.52674V9.34541C52.398 9.9117 52.8571 10.3708 53.4234 10.3708H60.4122C60.9785 10.3708 61.4376 9.9117 61.4376 9.34541V8.66346L63.9008 11.4524L61.4376 14.0522Z" fill="#F1292C"/>
<path d="M68.291 51.5643H65.8093C64.5105 51.5643 63.2894 51.0586 62.3711 50.1401L57.9809 45.7499V26.4852C57.9809 25.9189 57.5218 25.4598 56.9555 25.4598C56.3892 25.4598 55.9301 25.9189 55.9301 26.4852V43.8058C55.3744 43.4435 54.7256 43.2484 54.0466 43.2484C53.1228 43.2484 52.254 43.6082 51.6008 44.2615C50.2522 45.6101 50.2522 47.8044 51.6008 49.153L52.2607 49.8129H42.898C41.1093 49.8129 39.6066 51.2397 39.5481 52.9934C39.5311 53.4975 39.6266 53.9864 39.8233 54.4327C38.3671 54.7723 37.2792 56.0812 37.2792 57.6394C37.2792 58.2915 37.4719 58.8987 37.8003 59.4109H32.2001C32.5285 58.8988 32.7212 58.2917 32.7212 57.6394C32.7212 56.0813 31.6332 54.7724 30.1771 54.4328C30.3738 53.9865 30.4691 53.4976 30.4523 52.9936C30.3938 51.2399 28.891 49.8131 27.1024 49.8131H17.7393L18.3993 49.1531C19.7478 47.8044 19.7478 45.6101 18.3993 44.2616C17.7461 43.6084 16.8774 43.2485 15.9536 43.2485C15.2745 43.2485 14.6258 43.4435 14.07 43.8059V30.357C14.07 29.7907 13.6109 29.3316 13.0446 29.3316C12.4783 29.3316 12.0192 29.7907 12.0192 30.357V45.7501L7.62891 50.1402C6.71057 51.0586 5.48953 51.5644 4.1907 51.5644H1.70898C0.766582 51.5644 0 52.331 0 53.2734V68.291C0 69.2334 0.766582 70 1.70898 70H24.9576C26.7463 70 28.249 68.5732 28.3075 66.8194C28.3247 66.3048 28.225 65.806 28.0198 65.3524C29.4204 64.9738 30.4538 63.6921 30.4538 62.1735C30.4538 61.9291 30.4265 61.6911 30.3758 61.4616H39.6238C39.5731 61.6909 39.5458 61.9291 39.5458 62.1735C39.5458 63.6921 40.5792 64.9738 41.9798 65.3524C41.7746 65.806 41.675 66.3048 41.6921 66.8194C41.7506 68.5732 43.2534 70 45.042 70H68.291C69.2334 70 70 69.2334 70 68.291V53.2733C70 52.331 69.2334 51.5643 68.291 51.5643ZM27.1615 63.4151H19.9008C19.3345 63.4151 18.8754 63.8742 18.8754 64.4405C18.8754 65.0068 19.3345 65.4659 19.9008 65.4659H25.0169C25.3564 65.4659 25.6735 65.6003 25.9096 65.8446C26.1455 66.0885 26.2691 66.4104 26.2578 66.7509C26.2356 67.4116 25.6524 67.9492 24.9575 67.9492H2.05078V53.6151H4.1907C6.03723 53.6151 7.77328 52.8959 9.07895 51.5903L14.9577 45.7115C15.2236 45.4456 15.5772 45.299 15.9533 45.299C16.3294 45.299 16.683 45.4454 16.949 45.7115C17.4981 46.2606 17.4979 47.1539 16.949 47.7028L14.5387 50.1132C14.2454 50.4064 14.1576 50.8475 14.3164 51.2306C14.4751 51.6138 14.849 51.8636 15.2637 51.8636H27.102C27.797 51.8636 28.3804 52.4012 28.4024 53.0618C28.4137 53.4023 28.29 53.7243 28.0541 53.9682C27.818 54.2124 27.5011 54.3468 27.1615 54.3468H19.9008C19.3345 54.3468 18.8754 54.8059 18.8754 55.3722C18.8754 55.9385 19.3345 56.3976 19.9008 56.3976H29.4286C30.1131 56.3976 30.6703 56.9546 30.6703 57.6393C30.6703 58.3239 30.1133 58.8809 29.4286 58.8809H19.9008C19.3345 58.8809 18.8754 59.34 18.8754 59.9063C18.8754 60.4726 19.3345 60.9317 19.9008 60.9317H27.1615C27.8461 60.9317 28.4032 61.4887 28.4032 62.1734C28.4032 62.8581 27.8462 63.4151 27.1615 63.4151ZM67.9492 67.9492H45.0424C44.3475 67.9492 43.7641 67.4116 43.7421 66.7509C43.7307 66.4103 43.8545 66.0885 44.0903 65.8446C44.3264 65.6004 44.6435 65.4659 44.9829 65.4659H50.0991C50.6654 65.4659 51.1245 65.0068 51.1245 64.4405C51.1245 63.8742 50.6654 63.4151 50.0991 63.4151H42.8384C42.1538 63.4151 41.5967 62.8581 41.5967 62.1734C41.5967 61.4887 42.1537 60.9317 42.8384 60.9317H50.0991C50.6654 60.9317 51.1245 60.4726 51.1245 59.9063C51.1245 59.34 50.6654 58.8809 50.0991 58.8809H40.5713C39.8867 58.8809 39.3296 58.3239 39.3296 57.6393C39.3296 56.9546 39.8866 56.3976 40.5713 56.3976H50.0991C50.6654 56.3976 51.1245 55.9385 51.1245 55.3722C51.1245 54.8059 50.6654 54.3468 50.0991 54.3468H42.8384C42.4989 54.3468 42.1818 54.2124 41.9457 53.9682C41.7097 53.7243 41.5862 53.4023 41.5975 53.0618C41.6197 52.401 42.2029 51.8636 42.8978 51.8636H54.7362C55.151 51.8636 55.5248 51.6138 55.6835 51.2306C55.8422 50.8473 55.7545 50.4064 55.4612 50.1132L53.0508 47.7028C52.5018 47.1537 52.5018 46.2604 53.0508 45.7115C53.3168 45.4456 53.6705 45.299 54.0466 45.299C54.4227 45.299 54.7762 45.4454 55.0423 45.7115L60.9211 51.5903C62.2267 52.8959 63.9628 53.6151 65.8093 53.6151H67.9492V67.9492Z" fill="#F1292C"/>
</svg>
