<svg width="60" height="60" viewBox="0 0 60 60" fill="none" xmlns="http://www.w3.org/2000/svg">
<path d="M34.1801 34.7486C33.9721 34.6931 29.0457 33.4321 25.4873 36.9904C25.4714 37.0063 25.4563 37.0223 25.4406 37.0384C25.4188 35.3655 24.9777 33.0594 23.0923 31.1741C19.7773 27.8592 15.1902 29.0337 14.9966 29.0854C14.5909 29.1935 14.2741 29.5103 14.166 29.916C14.1144 30.1096 12.94 34.6969 16.2547 38.0115C18.1908 39.9475 20.5713 40.3614 22.2533 40.3614C22.5022 40.3614 22.7345 40.352 22.9492 40.3375V49.8633C22.9492 50.5104 23.4739 51.0352 24.1211 51.0352C24.7682 51.0352 25.2929 50.5104 25.2929 49.8633V46.7455C25.5969 46.7741 25.9453 46.7944 26.3285 46.7944C28.1348 46.7944 30.6909 46.3499 32.7689 44.2719C36.3272 40.7135 35.0661 35.7872 35.0107 35.5792C34.9025 35.1734 34.5858 34.8566 34.1801 34.7486ZM17.9122 36.3541C16.1897 34.6317 16.1791 32.3667 16.309 31.2304C17.4452 31.1029 19.7181 31.1145 21.435 32.8314C23.1566 34.5529 23.1838 36.8291 23.0616 37.9785C21.9123 38.0981 19.628 38.0701 17.9122 36.3541ZM31.1115 42.6145C29.1731 44.5529 26.6029 44.5447 25.3615 44.4002C25.2207 43.1624 25.2131 40.5791 27.1447 38.6476C29.085 36.7072 31.6443 36.7355 32.8689 36.8876C33.0179 38.1114 33.0443 40.6818 31.1115 42.6145Z" fill="#F1292C"/>
<path d="M52.6725 50.5C51.0475 48.2728 48.6278 46.8121 45.9375 46.4023V24.6422C47.3014 24.1584 48.2812 22.8559 48.2812 21.3281V16.6406C48.2812 14.7021 46.7041 13.125 44.7656 13.125H41.9147C41.3834 8.81859 37.9663 5.37176 33.6125 4.85484C31.4175 1.80422 27.9188 0 24.1406 0C20.3625 0 16.8637 1.80422 14.6687 4.85484C10.3148 5.37176 6.89777 8.81859 6.36656 13.125H3.51562C1.57711 13.125 0 14.7021 0 16.6406V21.3281C0 22.8558 0.979805 24.1584 2.34375 24.6422V48.1962C2.34375 48.3614 2.25234 48.5121 2.11617 48.5712C0.830625 49.1293 0 50.3955 0 51.7969V56.4844C0 58.4229 1.57711 60 3.51562 60H29.9292C30.5763 60 31.1011 59.4752 31.1011 58.8281C31.1011 55.6213 33.6067 52.9672 36.8053 52.7861C37.1787 52.7648 37.5195 52.5669 37.7227 52.2531C39.1929 49.9829 41.6811 48.6277 44.3787 48.6277C47.0762 48.6277 49.5645 49.9828 51.0347 52.2531C51.2379 52.5669 51.5788 52.7648 51.952 52.7861C55.1507 52.9672 57.6562 55.6213 57.6562 58.8281C57.6562 59.4752 58.181 60 58.8281 60C59.4752 60 60 59.4752 60 58.8281C60 54.5779 56.8261 51.0277 52.6725 50.5ZM15.3898 7.14328C15.7631 7.12207 16.1039 6.92414 16.3071 6.61031C18.0374 3.93867 20.9658 2.34375 24.1406 2.34375C27.3155 2.34375 30.2439 3.93867 31.9741 6.61031C32.1773 6.92414 32.5182 7.12207 32.8915 7.14328C36.2808 7.33535 39.0129 9.87258 39.5495 13.125H8.73176C9.26836 9.87258 12.0005 7.33535 15.3898 7.14328ZM36.085 50.5C32.3197 50.9783 29.3596 53.9405 28.8389 57.6562H3.51562C2.86945 57.6562 2.34375 57.1305 2.34375 56.4844V51.7969C2.34375 51.3295 2.62078 50.9072 3.04969 50.721C4.04473 50.2889 4.6875 49.2979 4.6875 48.1961V24.8438H18.8476C19.4947 24.8438 20.0195 24.319 20.0195 23.6719C20.0195 23.0248 19.4947 22.5 18.8476 22.5H3.51562C2.86945 22.5 2.34375 21.9743 2.34375 21.3281V16.6406C2.34375 15.9945 2.86945 15.4688 3.51562 15.4688H44.7656C45.4118 15.4688 45.9375 15.9945 45.9375 16.6406V21.3281C45.9375 21.9743 45.4118 22.5 44.7656 22.5H29.3945C28.7474 22.5 28.2226 23.0248 28.2226 23.6719C28.2226 24.319 28.7474 24.8438 29.3945 24.8438H43.5938V46.3148C40.5968 46.542 37.8645 48.0612 36.085 50.5Z" fill="#F1292C"/>
<path d="M24.1406 24.825C24.4488 24.825 24.7512 24.7008 24.969 24.4816C25.187 24.2637 25.3125 23.9624 25.3125 23.6531C25.3125 23.3449 25.1871 23.0426 24.969 22.8246C24.7512 22.6068 24.4488 22.4812 24.1406 22.4812C23.8324 22.4812 23.5301 22.6066 23.3121 22.8246C23.0941 23.0426 22.9688 23.3449 22.9688 23.6531C22.9688 23.9625 23.094 24.2637 23.3121 24.4816C23.5301 24.7008 23.8324 24.825 24.1406 24.825Z" fill="#F1292C"/>
</svg>
