<svg width="77" height="50" viewBox="0 0 77 50" fill="none" xmlns="http://www.w3.org/2000/svg">
<path fill-rule="evenodd" clip-rule="evenodd" d="M48.7511 26.2266H2.05174C1.56111 26.2266 1.15968 25.8252 1.15968 25.3345V0.892061C1.15968 0.401427 1.56111 0 2.05174 0H48.7511C49.2417 0 49.6432 0.401427 49.6432 0.892061V25.3345C49.6432 25.8252 49.2417 26.2266 48.7511 26.2266ZM2.9438 24.4425H47.8591V1.78412H2.9438V24.4425Z" fill="#F1292C"/>
<path fill-rule="evenodd" clip-rule="evenodd" d="M8.11775 21.7663C7.62712 21.7663 7.22569 21.3649 7.22569 20.8742V5.35236C7.22569 4.19268 9.00981 4.19268 9.00981 5.35236V20.8742C9.00981 21.3649 8.60839 21.7663 8.11775 21.7663Z" fill="#F1292C"/>
<path fill-rule="evenodd" clip-rule="evenodd" d="M15.0312 21.7663C14.5406 21.7663 14.1392 21.3649 14.1392 20.8742V5.35236C14.1392 4.19268 15.9233 4.19268 15.9233 5.35236V20.8742C15.9233 21.3649 15.5219 21.7663 15.0312 21.7663Z" fill="#F1292C"/>
<path fill-rule="evenodd" clip-rule="evenodd" d="M21.9447 21.7663C21.4541 21.7663 21.0526 21.3649 21.0526 20.8742V5.35236C21.0526 4.19268 22.8368 4.19268 22.8368 5.35236V20.8742C22.8368 21.3649 22.4353 21.7663 21.9447 21.7663Z" fill="#F1292C"/>
<path fill-rule="evenodd" clip-rule="evenodd" d="M28.8582 21.7663C28.3675 21.7663 27.9661 21.3649 27.9661 20.8742V5.35236C27.9661 4.19268 29.7502 4.19268 29.7502 5.35236V20.8742C29.7502 21.3649 29.3488 21.7663 28.8582 21.7663Z" fill="#F1292C"/>
<path fill-rule="evenodd" clip-rule="evenodd" d="M35.7716 21.7663C35.281 21.7663 34.8796 21.3649 34.8796 20.8742V5.35236C34.8796 4.19268 36.6637 4.19268 36.6637 5.35236V20.8742C36.6637 21.3649 36.2623 21.7663 35.7716 21.7663Z" fill="#F1292C"/>
<path fill-rule="evenodd" clip-rule="evenodd" d="M42.6851 21.7663C42.1945 21.7663 41.793 21.3649 41.793 20.8742V5.35236C41.793 4.19268 43.5772 4.19268 43.5772 5.35236V20.8742C43.5772 21.3649 43.1757 21.7663 42.6851 21.7663Z" fill="#F1292C"/>
<path fill-rule="evenodd" clip-rule="evenodd" d="M71.7217 41.9269H68.5549C68.1534 41.9269 67.8412 41.6592 67.7074 41.3024C66.2801 36.0839 58.7868 35.9946 57.2703 41.3024C57.1365 41.6592 56.7797 41.9269 56.4228 41.9269H37.1543C36.7529 41.9269 36.3961 41.6592 36.3069 41.3024C34.835 36.0839 27.3417 35.9946 25.8252 41.3024C25.7359 41.6592 25.3791 41.9269 24.9777 41.9269H18.9117C18.5103 41.9269 18.1534 41.6592 18.0642 41.3024C16.6369 36.0839 9.14362 35.9946 7.62712 41.3024C7.3595 42.2391 5.9322 41.9269 4.3711 41.9269C1.96253 41.9269 0 39.9643 0 37.5558V30.2409C0 29.7502 0.401427 29.3488 0.892061 29.3488H52.1409V10.3925C52.1409 9.90187 52.5424 9.50045 53.033 9.50045H65.2988C71.2756 9.50045 76.1374 14.3622 76.1374 20.2944V37.5558C76.0928 39.9643 74.1302 41.9269 71.7217 41.9269ZM69.2239 40.1427H71.7217C73.149 40.1427 74.3086 38.983 74.3086 37.5558V20.2944C74.3086 15.3434 70.2498 11.2846 65.2542 11.2846H53.8805V30.2409C53.8805 30.7315 53.479 31.1329 52.9884 31.1329H1.73952V37.5558C1.73952 38.983 2.8992 40.1427 4.32649 40.1427H6.11062C8.47458 34.0321 17.1722 34.0321 19.5361 40.1427H24.3533C26.7172 34.0321 35.4148 34.0321 37.7788 40.1427H55.7538C58.1624 34.0321 66.8153 34.0321 69.2239 40.1427Z" fill="#F1292C"/>
<path fill-rule="evenodd" clip-rule="evenodd" d="M75.2007 26.182H63.1579C60.4371 26.182 58.2516 23.9964 58.2516 21.2756V10.3925C58.2516 9.90187 58.653 9.50045 59.1436 9.50045H65.2988C71.231 9.50045 76.0928 14.3622 76.0928 20.2944V25.2899C76.0928 25.7806 75.6913 26.182 75.2007 26.182ZM60.0357 11.2846V21.2756C60.0357 22.9706 61.4184 24.3979 63.1579 24.3979H74.3086V20.2944C74.3086 15.3434 70.2498 11.2846 65.2542 11.2846H60.0357Z" fill="#F1292C"/>
<path fill-rule="evenodd" clip-rule="evenodd" d="M31.0883 50C27.074 50 23.8626 46.744 23.8626 42.7743C23.8626 38.8046 27.074 35.5486 31.0883 35.5486C35.058 35.5486 38.2694 38.8046 38.2694 42.7743C38.2694 46.744 35.058 50 31.0883 50ZM31.0883 37.3327C28.0553 37.3327 25.6467 39.7859 25.6467 42.7743C25.6467 45.7627 28.0553 48.2159 31.0883 48.2159C34.0767 48.2159 36.4853 45.7627 36.4853 42.7743C36.4853 39.7859 34.0767 37.3327 31.0883 37.3327Z" fill="#F1292C"/>
<path fill-rule="evenodd" clip-rule="evenodd" d="M12.8011 50C8.8314 50 5.61998 46.744 5.61998 42.7743C5.61998 38.8046 8.8314 35.5486 12.8011 35.5486C16.8153 35.5486 20.0268 38.8046 20.0268 42.7743C20.0268 46.744 16.8153 50 12.8011 50ZM12.8011 37.3327C9.81267 37.3327 7.4041 39.7859 7.4041 42.7743C7.4041 45.7627 9.81267 48.2159 12.8011 48.2159C15.8341 48.2159 18.2426 45.7627 18.2426 42.7743C18.2426 39.7859 15.8341 37.3327 12.8011 37.3327Z" fill="#F1292C"/>
<path fill-rule="evenodd" clip-rule="evenodd" d="M62.4888 50C58.5192 50 55.2632 46.744 55.2632 42.7743C55.2632 38.8046 58.5192 35.5486 62.4888 35.5486C66.4585 35.5486 69.7145 38.8046 69.7145 42.7743C69.7145 46.744 66.4585 50 62.4888 50ZM62.4888 37.3327C59.5004 37.3327 57.0473 39.7859 57.0473 42.7743C57.0473 45.7627 59.5004 48.2159 62.4888 48.2159C65.4773 48.2159 67.9304 45.7627 67.9304 42.7743C67.9304 39.7859 65.4773 37.3327 62.4888 37.3327Z" fill="#F1292C"/>
<path fill-rule="evenodd" clip-rule="evenodd" d="M12.8011 46.3425C8.16236 46.3425 8.16236 39.2061 12.8011 39.2061C17.4844 39.2061 17.4844 46.3425 12.8011 46.3425ZM12.8011 40.9902C10.4817 40.9902 10.4817 44.5584 12.8011 44.5584C15.165 44.5584 15.165 40.9902 12.8011 40.9902Z" fill="#F1292C"/>
<path fill-rule="evenodd" clip-rule="evenodd" d="M31.0883 46.3425C26.405 46.3425 26.405 39.2061 31.0883 39.2061C35.727 39.2061 35.7716 46.3425 31.0883 46.3425ZM31.0883 40.9902C28.7244 40.9902 28.7244 44.5584 31.0883 44.5584C33.4077 44.5584 33.4077 40.9902 31.0883 40.9902Z" fill="#F1292C"/>
<path fill-rule="evenodd" clip-rule="evenodd" d="M62.4888 46.3425C57.8055 46.3425 57.8055 39.2061 62.4888 39.2061C67.1722 39.2061 67.1722 46.3425 62.4888 46.3425ZM62.4888 40.9902C60.1695 40.9902 60.1695 44.5584 62.4888 44.5584C64.8082 44.5584 64.8082 40.9902 62.4888 40.9902Z" fill="#F1292C"/>
<path fill-rule="evenodd" clip-rule="evenodd" d="M52.9884 41.9268C52.4978 41.9268 52.0963 41.5254 52.0963 41.0348V30.2409C52.0963 29.0812 53.8805 29.0812 53.8805 30.2409V41.0348C53.8805 41.5254 53.479 41.9268 52.9884 41.9268Z" fill="#F1292C"/>
<path fill-rule="evenodd" clip-rule="evenodd" d="M61.1062 30.1963C59.3666 30.1963 57.4933 30.5531 57.4933 29.3042C57.4933 28.0553 59.3666 28.4121 61.1062 28.4121C62.2658 28.4121 62.2658 30.1963 61.1062 30.1963Z" fill="#F1292C"/>
<path fill-rule="evenodd" clip-rule="evenodd" d="M75.2007 35.4148C70.0268 35.4148 70.339 35.7716 70.339 30.5977C70.339 28.3229 73.149 28.8136 75.2007 28.8136C75.6913 28.8136 76.0928 29.215 76.0928 29.7056V34.5227C76.0928 35.0134 75.6913 35.4148 75.2007 35.4148ZM72.1231 30.5977V33.6753H74.3087V30.5977H72.1231Z" fill="#F1292C"/>
<path fill-rule="evenodd" clip-rule="evenodd" d="M42.8635 31.1329C42.3729 31.1329 41.9715 30.7315 41.9715 30.2409V25.3345C41.9715 24.1748 43.7556 24.1748 43.7556 25.3345V30.2409C43.7556 30.7315 43.3541 31.1329 42.8635 31.1329ZM7.85013 31.1329C7.3595 31.1329 6.95807 30.7315 6.95807 30.2409V25.3345C6.95807 24.1748 8.74219 24.1748 8.74219 25.3345V30.2409C8.74219 30.7315 8.34077 31.1329 7.85013 31.1329Z" fill="#F1292C"/>
</svg>
