<svg width="366" height="471" viewBox="0 0 366 471" fill="none" xmlns="http://www.w3.org/2000/svg">
<path d="M337.947 180.77V181.066C356.945 200.148 366.147 225.148 365.998 250.147C365.701 275.147 356.054 299.998 336.908 318.785L181.813 471L153.02 441.859C153.02 441.859 154.059 440.527 154.059 439.344C151.832 425.439 144.857 418.486 133.132 418.486L131.796 420.409L113.392 401.771L158.214 357.837L182.555 382.393L292.828 274.111C299.656 267.455 303.069 258.579 303.069 249.851C303.069 240.976 299.953 232.1 293.274 225.296V225.148C286.595 218.343 277.69 214.941 268.785 214.941C259.88 214.941 250.975 218.195 244.148 224.852L184.039 283.726H183.742L123.04 342.897L88.9036 376.476L47.4952 334.909L29.2399 316.862H28.943V316.714C21.0769 308.874 14.6951 300.146 10.0942 290.679C23.3033 280.028 29.982 273.076 29.982 269.821C29.982 266.863 27.7558 264.2 23.4517 261.981H18.8508C14.2498 263.904 9.79742 269.821 5.49332 279.732C1.93131 269.673 0.150156 259.023 0.00173932 248.372C-0.146678 223.373 9.20367 198.373 27.9042 179.291V178.995H28.0526C35.325 171.747 43.3397 165.83 52.0963 161.244C51.3542 162.28 50.4636 163.167 50.612 164.203L52.8382 168.197C56.8454 170.859 60.2591 171.451 62.9306 169.824C64.2664 169.084 65.4537 167.013 66.6411 163.463C67.2347 161.54 65.3053 158.581 65.0085 155.623C75.2493 152.073 85.9354 150.298 96.6214 150.15C119.626 150.002 142.631 157.694 161.034 173.522L115.767 217.9C110.127 214.349 103.597 212.722 97.215 212.722C88.3099 212.722 79.405 216.272 72.7262 222.929V223.225H72.5777C66.0473 230.029 62.7821 238.757 62.7821 247.633C62.7821 256.508 66.3443 265.384 73.1715 272.04H73.4681V272.188L89.3489 288.016L109.682 268.046C113.689 272.928 117.993 275.295 122.594 275.295H125.859C127.937 275.295 128.976 274.407 128.976 272.188C127.789 264.94 125.414 259.762 121.704 256.212L142.482 235.946L183.742 195.415H184.039L199.92 180.031C219.065 161.244 244.148 151.925 269.23 152.221C294.164 152.369 319.099 161.984 337.799 180.918L337.947 180.77ZM183.445 153.108L127.64 23.2296C143.818 2.668 166.971 -0.14259 183.445 0.00533537C188.64 0.00533537 194.577 0.449112 200.513 1.33666C199.92 2.37214 199.326 3.40762 198.732 4.29517C196.357 7.25368 193.538 9.02879 191.905 11.5435C189.679 14.9458 190.272 18.7919 189.53 21.4545C188.937 23.5255 186.71 24.7089 187.007 26.3361L189.233 30.3301C193.241 32.9927 196.654 33.5844 199.326 31.9572C200.662 31.2176 201.849 29.1467 203.036 25.5964C203.778 23.3776 200.81 19.5315 201.552 16.1292C202.146 13.1707 206.598 10.656 207.34 6.80991L207.934 2.81592C219.065 5.77443 230.345 11.6914 239.547 23.3776L183.297 152.812L183.445 153.108ZM236.727 184.764L235.688 179.291C237.617 177.072 240.586 175.889 242.515 174.114C245.187 171.451 246.819 168.492 249.194 166.717C252.459 164.203 256.17 164.351 258.841 163.315C260.771 162.575 261.809 160.209 263.442 160.357L267.598 162.28C270.566 165.978 271.457 169.38 270.269 172.191C269.676 173.522 267.598 175.001 264.184 176.48C261.958 177.516 257.802 174.853 254.537 175.889C251.569 176.776 249.639 181.51 245.78 182.545C242.96 183.285 239.844 184.173 236.579 184.912L236.727 184.764ZM329.636 257.544C331.269 262.721 334.237 265.236 338.838 265.236L344.033 259.171V254.141C344.033 251.922 342.994 250.887 340.767 250.887H334.237C331.565 250.887 329.933 253.106 329.636 257.544Z" fill="#F7F5F3"/>
</svg>
