<svg width="350" height="517" viewBox="0 0 350 517" fill="none" xmlns="http://www.w3.org/2000/svg">
<path d="M371.188 198.425V198.75C392.054 219.696 402.161 247.137 401.998 274.578C401.672 302.019 391.076 329.297 370.047 349.919L199.696 517L168.071 485.013C168.071 485.013 169.212 483.551 169.212 482.252C166.767 466.989 159.105 459.358 146.227 459.358L144.76 461.469L124.546 441.01L173.776 392.785L200.511 419.739L321.631 300.882C329.13 293.575 332.879 283.833 332.879 274.253C332.879 264.511 329.456 254.768 322.121 247.299V247.137C314.785 239.668 305.004 235.933 295.223 235.933C285.442 235.933 275.661 239.505 268.162 246.812L202.141 311.436H201.815L135.142 376.385L97.6483 413.244L52.1668 367.617L32.116 347.808H31.7899V347.645C23.1501 339.04 16.1406 329.46 11.0871 319.068C25.5955 307.377 32.9311 299.746 32.9311 296.173C32.9311 292.926 30.4858 290.003 25.7584 287.568H20.7049C15.6515 289.678 10.7611 296.173 6.03365 307.052C2.12128 296.011 0.164926 284.32 0.0019104 272.629C-0.161105 245.188 10.1089 217.747 30.6489 196.801V196.477H30.8118C38.7996 188.52 47.6026 182.025 57.2205 176.992C56.4054 178.129 55.4272 179.103 55.5902 180.239L58.0354 184.623C62.4368 187.546 66.1863 188.196 69.1206 186.41C70.5877 185.598 71.8918 183.324 73.1959 179.428C73.848 177.317 71.7288 174.069 71.4028 170.822C82.6508 166.925 94.388 164.976 106.125 164.814C131.393 164.652 156.66 173.095 176.874 190.469L127.154 239.181C120.959 235.284 113.787 233.498 106.777 233.498C96.9961 233.498 87.2153 237.394 79.8796 244.701V245.026H79.7165C72.5438 252.495 68.9574 262.075 68.9574 271.817C68.9574 281.56 72.8699 291.302 80.3687 298.609H80.6945V298.771L98.1373 316.145L120.47 294.225C124.872 299.583 129.599 302.181 134.653 302.181H138.239C140.521 302.181 141.662 301.207 141.662 298.771C140.358 290.815 137.75 285.132 133.675 281.235L156.497 258.99L201.815 214.5H202.141L219.584 197.613C240.613 176.992 268.162 166.762 295.712 167.087C323.098 167.25 350.485 177.804 371.025 198.587L371.188 198.425ZM201.489 168.061L140.195 25.4983C157.964 2.92856 183.394 -0.156516 201.489 0.00585645C207.195 0.00585645 213.715 0.492974 220.236 1.46721C219.584 2.60382 218.932 3.74042 218.28 4.71466C215.671 7.96211 212.574 9.91058 210.781 12.6709C208.336 16.4055 208.988 20.6272 208.173 23.5499C207.521 25.8231 205.075 27.1221 205.401 28.9082L207.847 33.2922C212.248 36.2149 215.997 36.8644 218.932 35.0783C220.399 34.2665 221.703 31.9932 223.007 28.0963C223.822 25.6607 220.562 21.439 221.377 17.7045C222.029 14.457 226.919 11.6967 227.734 7.47499L228.387 3.09093C240.613 6.33839 253.002 12.8333 263.109 25.6607L201.326 167.737L201.489 168.061ZM260.012 202.809L258.871 196.801C260.99 194.366 264.25 193.067 266.369 191.118C269.303 188.196 271.097 184.948 273.705 183C277.291 180.239 281.367 180.402 284.301 179.265C286.42 178.453 287.561 175.855 289.354 176.018L293.919 178.129C297.179 182.188 298.157 185.922 296.853 189.007C296.201 190.469 293.919 192.093 290.169 193.716C287.724 194.853 283.16 191.93 279.574 193.067C276.313 194.041 274.194 199.237 269.955 200.374C266.858 201.185 263.435 202.16 259.849 202.972L260.012 202.809ZM362.059 282.696C363.852 288.379 367.113 291.14 372.166 291.14L377.872 284.483V278.962C377.872 276.526 376.731 275.39 374.285 275.39H367.113C364.178 275.39 362.385 277.825 362.059 282.696Z" fill="white"/>
</svg>
