<svg width="22" height="22" viewBox="0 0 22 22" fill="none" xmlns="http://www.w3.org/2000/svg">
<path d="M14.63 11.0007L21.436 4.19471C22.188 3.44271 22.188 2.22355 21.436 1.47273L20.5287 0.565404C19.7765 -0.186823 18.5573 -0.186823 17.8065 0.565404L11.0007 7.37117L4.19471 0.563994C3.44271 -0.187998 2.22355 -0.187998 1.47273 0.563994L0.563994 1.47132C-0.187998 2.22355 -0.187998 3.44271 0.563994 4.19353L7.37117 11.0007L0.565404 17.8065C-0.186823 18.5587 -0.186823 19.7779 0.565404 20.5287L1.47273 21.436C2.22472 22.188 3.44389 22.188 4.19471 21.436L11.0007 14.63L17.8065 21.436C18.5587 22.188 19.7779 22.188 20.5287 21.436L21.436 20.5287C22.188 19.7765 22.188 18.5573 21.436 17.8065L14.63 11.0007Z" fill="#1B1B1D"/>
</svg>
