<svg width="23" height="30" viewBox="0 0 23 30" fill="none" xmlns="http://www.w3.org/2000/svg">
<path d="M21.2371 11.514V11.5329C22.431 12.7483 23.0092 14.3406 22.9999 15.9329C22.9812 17.5253 22.375 19.1082 21.1718 20.3048L11.4254 30L9.61599 28.1439C9.61599 28.1439 9.68128 28.0591 9.68128 27.9837C9.54138 27.098 9.10302 26.6552 8.36621 26.6552L8.28227 26.7777L7.12575 25.5905L9.94243 22.7922L11.472 24.3562L18.4018 17.4593C18.8308 17.0353 19.0453 16.47 19.0453 15.9141C19.0453 15.3488 18.8495 14.7835 18.4298 14.3501V14.3406C18.0101 13.9072 17.4505 13.6905 16.8909 13.6905C16.3313 13.6905 15.7716 13.8978 15.3426 14.3218L11.5653 18.0717H11.5466L7.732 21.8405L5.58684 23.9793L2.98467 21.3318L1.83748 20.1823H1.81882V20.1728C1.32451 19.6735 0.923465 19.1176 0.634336 18.5146C1.46442 17.8362 1.88412 17.3934 1.88412 17.1861C1.88412 16.9976 1.74421 16.828 1.47374 16.6867H1.18461C0.895482 16.8092 0.615685 17.1861 0.345209 17.8173C0.121367 17.1767 0.00943606 16.4983 0.000109302 15.8199C-0.00921745 14.2276 0.578373 12.6352 1.75354 11.4198V11.401H1.76287C2.21988 10.9393 2.72353 10.5624 3.27381 10.2703C3.22718 10.3363 3.17121 10.3928 3.18054 10.4588L3.32043 10.7132C3.57225 10.8828 3.78678 10.9204 3.95466 10.8168C4.0386 10.7697 4.11321 10.6378 4.18783 10.4117C4.22513 10.2892 4.10389 10.1007 4.08523 9.91229C4.72878 9.68616 5.40031 9.57309 6.07184 9.56367C7.51748 9.55425 8.96313 10.0442 10.1196 11.0523L7.27498 13.879C6.92056 13.6528 6.51019 13.5492 6.10914 13.5492C5.54953 13.5492 4.98993 13.7753 4.57023 14.1993V14.2181H4.56089C4.15051 14.6516 3.94532 15.2075 3.94532 15.7728C3.94532 16.3381 4.16918 16.9034 4.59821 17.3274H4.61685V17.3368L5.61482 18.345L6.89258 17.073C7.1444 17.3839 7.41489 17.5347 7.70402 17.5347H7.90919C8.03977 17.5347 8.10506 17.4782 8.10506 17.3368C8.03045 16.8751 7.88121 16.5454 7.64805 16.3192L8.9538 15.0284L11.5466 12.4468H11.5653L12.5632 11.4669C13.7664 10.2703 15.3426 9.67674 16.9188 9.69558C18.4857 9.705 20.0526 10.3174 21.2278 11.5234L21.2371 11.514ZM11.528 9.75211L8.02112 1.47959C9.03774 0.169936 10.4927 -0.00908217 11.528 0.000339832C11.8544 0.000339832 12.2275 0.0286059 12.6006 0.0851379C12.5633 0.151092 12.5259 0.217046 12.4886 0.273578C12.3394 0.462018 12.1622 0.575082 12.0596 0.735256C11.9197 0.951962 11.957 1.19693 11.9104 1.36653C11.8731 1.49844 11.7332 1.57381 11.7518 1.67746L11.8917 1.93185C12.1435 2.10145 12.3581 2.13913 12.5259 2.03549C12.6099 1.98838 12.6845 1.85647 12.7591 1.63035C12.8058 1.48902 12.6192 1.24404 12.6658 1.02734C12.7032 0.838898 12.983 0.678724 13.0296 0.433752L13.0669 0.179358C13.7664 0.367798 14.4752 0.744678 15.0535 1.48902L11.5187 9.73327L11.528 9.75211ZM14.8763 11.7684L14.811 11.4198C14.9322 11.2785 15.1188 11.2031 15.24 11.09C15.4079 10.9204 15.5105 10.732 15.6597 10.6189C15.8649 10.4588 16.0981 10.4682 16.266 10.4022C16.3872 10.3551 16.4525 10.2044 16.5551 10.2138L16.8162 10.3363C17.0028 10.5718 17.0587 10.7885 16.9841 10.9676C16.9468 11.0524 16.8162 11.1466 16.6017 11.2408C16.4618 11.3067 16.2007 11.1371 15.9955 11.2031C15.809 11.2596 15.6877 11.5611 15.4452 11.6271C15.268 11.6742 15.0721 11.7307 14.867 11.7778L14.8763 11.7684ZM20.7148 16.404C20.8174 16.7338 21.004 16.894 21.2931 16.894L21.6195 16.5077V16.1873C21.6195 16.046 21.5542 15.9801 21.4143 15.9801H21.004C20.8361 15.9801 20.7335 16.1214 20.7148 16.404Z" fill="#F1292C"/>
</svg>
