<svg width="24" height="30" viewBox="0 0 24 30" fill="none" xmlns="http://www.w3.org/2000/svg">
<path d="M21.3921 11.4362V11.4549C22.5946 12.6621 23.1771 14.2437 23.1677 15.8252C23.1489 17.4068 22.5383 18.9789 21.3263 20.1674L11.5088 29.7971L9.68616 27.9535C9.68616 27.9535 9.75194 27.8693 9.75194 27.7945C9.61101 26.9148 9.16945 26.4749 8.42726 26.4749L8.34271 26.5966L7.17775 25.4174L10.015 22.638L11.5557 24.1915L18.5361 17.3412C18.9682 16.9201 19.1843 16.3586 19.1843 15.8065C19.1843 15.245 18.987 14.6835 18.5643 14.253V14.2437C18.1415 13.8132 17.5778 13.5979 17.0141 13.5979C16.4504 13.5979 15.8867 13.8038 15.4546 14.2249L11.6497 17.9495H11.6309L7.78842 21.6929L5.62761 23.8172L3.00645 21.1875L1.85089 20.0458H1.8321V20.0364C1.33417 19.5404 0.930204 18.9883 0.638965 18.3894C1.4751 17.7156 1.89787 17.2757 1.89787 17.0699C1.89787 16.8827 1.75694 16.7142 1.48449 16.5739H1.19326C0.902017 16.6955 0.620178 17.0699 0.347728 17.6969C0.122252 17.0605 0.00950492 16.3867 0.000110099 15.7129C-0.00928472 14.1314 0.582593 12.5498 1.76634 11.3426V11.3239H1.77573C2.23608 10.8653 2.74341 10.491 3.2977 10.2009C3.25073 10.2664 3.19435 10.3225 3.20375 10.388L3.34466 10.6407C3.59832 10.8092 3.81441 10.8466 3.98352 10.7437C4.06807 10.6969 4.14323 10.5658 4.21839 10.3412C4.25597 10.2196 4.13383 10.0324 4.11504 9.84526C4.76329 9.62066 5.43972 9.50836 6.11615 9.499C7.57234 9.48964 9.02854 9.97627 10.1935 10.9776L7.32807 13.7851C6.97107 13.5605 6.5577 13.4576 6.15372 13.4576C5.59003 13.4576 5.02635 13.6822 4.60358 14.1033V14.122H4.59418C4.1808 14.5525 3.97411 15.1046 3.97411 15.6661C3.97411 16.2276 4.1996 16.7891 4.63176 17.2102H4.65054V17.2196L5.65579 18.2209L6.94288 16.9576C7.19654 17.2664 7.469 17.4161 7.76024 17.4161H7.96691C8.09844 17.4161 8.16421 17.36 8.16421 17.2196C8.08905 16.761 7.93873 16.4335 7.70386 16.2089L9.01914 14.9268L11.6309 12.3626H11.6497L12.6549 11.3894C13.8669 10.2009 15.4546 9.6113 17.0423 9.63002C18.6206 9.63937 20.199 10.2477 21.3827 11.4455L21.3921 11.4362ZM11.6121 9.68617L8.07966 1.46959C9.10369 0.168787 10.5693 -0.00902075 11.6121 0.000337534C11.9409 0.000337534 12.3167 0.0284124 12.6925 0.0845621C12.6549 0.15007 12.6173 0.215578 12.5798 0.271728C12.4295 0.458894 12.251 0.571193 12.1476 0.730284C12.0067 0.945525 12.0443 1.18884 11.9973 1.35729C11.9597 1.48831 11.8188 1.56317 11.8376 1.66611L11.9785 1.91879C12.2322 2.08724 12.4483 2.12467 12.6174 2.02173C12.7019 1.97494 12.7771 1.84392 12.8522 1.61932C12.8992 1.47895 12.7113 1.23563 12.7583 1.02039C12.7959 0.833225 13.0777 0.674134 13.1247 0.430819L13.1623 0.178145C13.8669 0.365311 14.5809 0.739642 15.1633 1.47895L11.6027 9.66745L11.6121 9.68617ZM14.9848 11.6888L14.9191 11.3426C15.0412 11.2022 15.2291 11.1273 15.3512 11.015C15.5203 10.8466 15.6237 10.6594 15.774 10.5471C15.9807 10.388 16.2156 10.3974 16.3847 10.3319C16.5068 10.2851 16.5726 10.1354 16.6759 10.1447L16.939 10.2664C17.1269 10.5003 17.1832 10.7156 17.1081 10.8934C17.0705 10.9776 16.939 11.0712 16.7229 11.1648C16.582 11.2303 16.3189 11.0618 16.1122 11.1273C15.9243 11.1835 15.8022 11.483 15.5579 11.5485C15.3794 11.5953 15.1821 11.6514 14.9755 11.6982L14.9848 11.6888ZM20.866 16.2931C20.9693 16.6207 21.1572 16.7797 21.4485 16.7797L21.7773 16.3961V16.0779C21.7773 15.9375 21.7115 15.872 21.5706 15.872H21.1572C20.9881 15.872 20.8848 16.0124 20.866 16.2931Z" fill="white"/>
</svg>
