<svg width="146" height="194" viewBox="0 0 146 194" fill="none" xmlns="http://www.w3.org/2000/svg">
<path opacity="0.1" d="M134.81 74.4574V74.5792C142.388 82.4391 146.058 92.7361 145.999 103.033C145.881 113.33 142.033 123.566 134.395 131.304L72.5263 194L61.0406 181.997C61.0406 181.997 61.4551 181.449 61.4551 180.961C60.567 175.234 57.7844 172.37 53.1072 172.37L52.5744 173.162L45.233 165.485L63.1128 147.389L72.8224 157.504L116.811 112.904C119.535 110.162 120.896 106.506 120.896 102.911C120.896 99.2555 119.653 95.5997 116.989 92.797V92.7361C114.325 89.9333 110.773 88.532 107.22 88.532C103.668 88.532 100.116 89.8724 97.3923 92.6142L73.4145 116.864H73.296L49.0814 141.236L35.4643 155.066L18.9462 137.945L11.664 130.512H11.5456V130.451C8.40773 127.222 5.862 123.627 4.02665 119.728C9.29586 115.341 11.9601 112.477 11.9601 111.137C11.9601 109.918 11.072 108.821 9.35503 107.907H7.5197C5.68436 108.699 3.90826 111.137 2.19133 115.219C0.770415 111.076 0.0598984 106.689 0.000693827 102.302C-0.0585108 92.0049 3.67141 81.7079 11.1312 73.8481V73.7262H11.1904C14.0914 70.7407 17.2885 68.3036 20.7816 66.4148C20.4855 66.8413 20.1303 67.2068 20.1895 67.6333L21.0775 69.2784C22.676 70.3751 24.0378 70.6189 25.1035 69.9486C25.6363 69.644 26.11 68.791 26.5836 67.3287C26.8204 66.5366 26.0508 65.318 25.9323 64.0995C30.0175 62.6372 34.2802 61.906 38.543 61.8451C47.7197 61.7842 56.8964 64.9525 64.2377 71.4719L46.1803 89.7506C43.9305 88.2883 41.3255 87.618 38.7797 87.618C35.2275 87.618 31.6752 89.0803 29.011 91.8221V91.944H28.9517C26.3467 94.7467 25.0442 98.3415 25.0442 101.997C25.0442 105.653 26.4652 109.309 29.1886 112.051H29.307V112.111L35.6419 118.631L43.7529 110.405C45.3514 112.416 47.0684 113.391 48.9038 113.391H50.2062C51.035 113.391 51.4495 113.025 51.4495 112.111C50.9759 109.126 50.0286 106.993 48.5485 105.531L56.8372 97.1839L73.296 80.4894H73.4145L79.7493 74.1527C87.3867 66.4148 97.3923 62.5762 107.398 62.6981C117.344 62.759 127.291 66.7194 134.75 74.5183L134.81 74.4574ZM73.1776 63.0637L50.9167 9.56804C57.37 1.09892 66.6059 -0.0587314 73.1776 0.00219758C75.2498 0.00219758 77.618 0.184985 79.9862 0.550558C79.7494 0.977061 79.5125 1.40356 79.2757 1.76914C78.3284 2.98772 77.2036 3.71886 76.5523 4.75466C75.6642 6.15602 75.901 7.74018 75.605 8.8369C75.3682 9.6899 74.4801 10.1773 74.5985 10.8476L75.4866 12.4926C77.0851 13.5894 78.4469 13.8331 79.5125 13.1629C80.0454 12.8582 80.519 12.0052 80.9927 10.5429C81.2887 9.62897 80.1045 8.04482 80.4006 6.64345C80.6374 5.42488 82.4135 4.38908 82.7095 2.80493L82.9464 1.15985C87.3868 2.37843 91.8862 4.81559 95.5569 9.62897L73.1184 62.9418L73.1776 63.0637ZM94.432 76.1025L94.0176 73.8481C94.7873 72.9342 95.9713 72.4467 96.741 71.7156C97.8067 70.6189 98.458 69.4003 99.4053 68.6691C100.708 67.6333 102.188 67.6943 103.254 67.2678C104.023 66.9631 104.438 65.9883 105.089 66.0492L106.747 66.8413C107.931 68.3645 108.286 69.7659 107.812 70.9235C107.576 71.4719 106.747 72.0812 105.385 72.6904C104.497 73.117 102.839 72.0202 101.537 72.4467C100.353 72.8123 99.5828 74.762 98.0435 75.1885C96.9186 75.4932 95.6754 75.8588 94.3729 76.1634L94.432 76.1025ZM131.494 106.08C132.145 108.212 133.329 109.248 135.165 109.248L137.237 106.75V104.678C137.237 103.764 136.823 103.338 135.935 103.338H133.329C132.264 103.338 131.613 104.252 131.494 106.08Z" fill="white"/>
</svg>
