<svg width="243" height="128" viewBox="0 0 243 128" fill="none" xmlns="http://www.w3.org/2000/svg">
<path d="M2.758 105H1.218V95.2H9.184V105H7.644V96.614H2.758V105ZM14.7723 103.852C15.4163 103.852 15.9483 103.628 16.3823 103.194C16.8163 102.76 17.0263 102.214 17.0263 101.556C17.0263 100.912 16.8163 100.366 16.3823 99.932C15.9483 99.498 15.4163 99.274 14.7723 99.274C14.1283 99.274 13.5823 99.498 13.1483 99.932C12.7143 100.366 12.5043 100.912 12.5043 101.556C12.5043 102.214 12.7143 102.76 13.1483 103.194C13.5823 103.628 14.1143 103.852 14.7723 103.852ZM14.7723 105.182C13.6663 105.182 12.7703 104.832 12.0563 104.132C11.3423 103.432 10.9923 102.578 10.9923 101.556C10.9923 100.548 11.3423 99.694 12.0563 98.994C12.7703 98.294 13.6663 97.944 14.7723 97.944C15.8643 97.944 16.7603 98.294 17.4743 98.994C18.1883 99.694 18.5383 100.548 18.5383 101.556C18.5383 102.564 18.1883 103.418 17.4743 104.132C16.7603 104.832 15.8643 105.182 14.7723 105.182ZM20.6855 106.89H19.2295V103.67H20.1255C20.4895 103.124 20.7415 102.452 20.8815 101.64C21.0355 100.814 21.1055 99.652 21.1195 98.126H26.5935V103.67H27.7835V106.89H26.3555V105H20.6855V106.89ZM21.7215 103.67H25.0815V99.456H22.5055C22.5055 101.248 22.2395 102.648 21.7215 103.67ZM28.8488 98.126H30.5988L32.2228 100.254L33.8608 98.126H35.5828L33.0908 101.374L35.8628 105H34.1128L32.1948 102.494L30.2767 105H28.5688L31.3408 101.402L28.8488 98.126ZM40.3524 103.852C40.9964 103.852 41.5284 103.628 41.9624 103.194C42.3964 102.76 42.6064 102.214 42.6064 101.556C42.6064 100.912 42.3964 100.366 41.9624 99.932C41.5284 99.498 40.9964 99.274 40.3524 99.274C39.7084 99.274 39.1624 99.498 38.7284 99.932C38.2944 100.366 38.0844 100.912 38.0844 101.556C38.0844 102.214 38.2944 102.76 38.7284 103.194C39.1624 103.628 39.6944 103.852 40.3524 103.852ZM40.3524 105.182C39.2464 105.182 38.3504 104.832 37.6364 104.132C36.9224 103.432 36.5724 102.578 36.5724 101.556C36.5724 100.548 36.9224 99.694 37.6364 98.994C38.3504 98.294 39.2464 97.944 40.3524 97.944C41.4444 97.944 42.3404 98.294 43.0544 98.994C43.7684 99.694 44.1184 100.548 44.1184 101.556C44.1184 102.564 43.7684 103.418 43.0544 104.132C42.3404 104.832 41.4444 105.182 40.3524 105.182ZM46.2656 106.89H44.8096V103.67H45.7056C46.0696 103.124 46.3216 102.452 46.4616 101.64C46.6156 100.814 46.6856 99.652 46.6996 98.126H52.1736V103.67H53.3636V106.89H51.9356V105H46.2656V106.89ZM47.3016 103.67H50.6616V99.456H48.0856C48.0856 101.248 47.8196 102.648 47.3016 103.67ZM56.0248 105H54.2888L56.2348 102.326C55.2688 102.088 54.7088 101.346 54.7088 100.296C54.7088 99.022 55.5768 98.126 57.2988 98.126H60.9108V105H59.3988V102.634H57.7328L56.0248 105ZM57.5088 101.416H59.3988V99.344H57.5088C56.7108 99.344 56.2488 99.722 56.2488 100.38C56.2488 101.038 56.7108 101.416 57.5088 101.416ZM68.215 105H66.703V98.126H68.215V100.73L70.931 98.126H72.863L69.601 101.206L73.353 105H71.281L68.215 101.892V105ZM80.6478 105.182C79.5838 105.182 78.7158 105.014 78.0298 104.692V103.32C78.8278 103.698 79.6258 103.88 80.4378 103.88C81.6278 103.88 82.3698 103.516 82.3698 102.886C82.3698 102.312 81.8658 102.018 80.8578 102.018H79.5838V100.8H80.8578C81.7118 100.8 82.1458 100.548 82.1458 100.044C82.1458 99.512 81.5858 99.246 80.4798 99.246C79.7518 99.246 78.9958 99.414 78.2258 99.75V98.42C78.9398 98.098 79.7938 97.944 80.8018 97.944C81.6278 97.944 82.3278 98.112 82.8738 98.462C83.4198 98.812 83.6998 99.246 83.6998 99.792C83.6998 100.548 83.3498 101.052 82.6498 101.304C83.5318 101.584 83.9658 102.144 83.9658 102.998C83.9658 103.642 83.6578 104.174 83.0558 104.58C82.4538 104.986 81.6418 105.182 80.6478 105.182ZM92.1883 103.824C92.3423 103.824 92.4683 103.796 92.5943 103.726V104.874C92.3843 105.028 92.0903 105.098 91.7123 105.098C90.9423 105.098 90.4523 104.776 90.2703 104.118C89.6403 104.832 88.8003 105.182 87.7363 105.182C86.9943 105.182 86.3783 104.972 85.8883 104.566C85.3983 104.16 85.1603 103.586 85.1603 102.872C85.1603 102.144 85.4263 101.584 85.9583 101.192C86.4903 100.786 87.1483 100.59 87.9183 100.59C88.7443 100.59 89.4863 100.772 90.1163 101.122V100.744C90.1163 99.75 89.4443 99.246 88.1003 99.246C87.3163 99.246 86.5883 99.456 85.9303 99.862V98.532C86.6163 98.14 87.4423 97.944 88.4363 97.944C90.3403 97.944 91.6143 98.896 91.6143 100.576V103.138C91.6143 103.572 91.8522 103.824 92.1883 103.824ZM90.1163 103.054V102.214C89.5423 101.892 88.9263 101.724 88.2823 101.724C87.2743 101.724 86.6723 102.116 86.6723 102.788C86.6723 103.516 87.2743 103.88 88.1562 103.88C88.9403 103.88 89.6823 103.516 90.1163 103.054ZM94.7598 106.89H93.3038V103.67H94.1998C94.5638 103.124 94.8158 102.452 94.9558 101.64C95.1098 100.814 95.1798 99.652 95.1938 98.126H100.668V103.67H101.858V106.89H100.43V105H94.7598V106.89ZM95.7958 103.67H99.1558V99.456H96.5798C96.5798 101.248 96.3138 102.648 95.7958 103.67ZM109.825 103.824C109.979 103.824 110.105 103.796 110.231 103.726V104.874C110.021 105.028 109.727 105.098 109.349 105.098C108.579 105.098 108.089 104.776 107.907 104.118C107.277 104.832 106.437 105.182 105.373 105.182C104.631 105.182 104.015 104.972 103.525 104.566C103.035 104.16 102.797 103.586 102.797 102.872C102.797 102.144 103.063 101.584 103.595 101.192C104.127 100.786 104.785 100.59 105.555 100.59C106.381 100.59 107.123 100.772 107.753 101.122V100.744C107.753 99.75 107.081 99.246 105.737 99.246C104.953 99.246 104.225 99.456 103.567 99.862V98.532C104.253 98.14 105.079 97.944 106.073 97.944C107.977 97.944 109.251 98.896 109.251 100.576V103.138C109.251 103.572 109.489 103.824 109.825 103.824ZM107.753 103.054V102.214C107.179 101.892 106.563 101.724 105.919 101.724C104.911 101.724 104.309 102.116 104.309 102.788C104.309 103.516 104.911 103.88 105.793 103.88C106.577 103.88 107.319 103.516 107.753 103.054ZM117.412 105H115.9V102.522C115.382 102.732 114.78 102.844 114.094 102.844C112.19 102.844 111.238 102.032 111.238 99.862V98.126H112.75V99.736C112.75 101.066 113.17 101.528 114.346 101.528C114.92 101.528 115.438 101.416 115.9 101.178V98.126H117.412V105ZM126.026 103.824C126.18 103.824 126.306 103.796 126.432 103.726V104.874C126.222 105.028 125.928 105.098 125.55 105.098C124.78 105.098 124.29 104.776 124.108 104.118C123.478 104.832 122.638 105.182 121.574 105.182C120.832 105.182 120.216 104.972 119.726 104.566C119.236 104.16 118.998 103.586 118.998 102.872C118.998 102.144 119.264 101.584 119.796 101.192C120.328 100.786 120.986 100.59 121.756 100.59C122.582 100.59 123.324 100.772 123.954 101.122V100.744C123.954 99.75 123.282 99.246 121.938 99.246C121.154 99.246 120.426 99.456 119.768 99.862V98.532C120.454 98.14 121.28 97.944 122.274 97.944C124.178 97.944 125.452 98.896 125.452 100.576V103.138C125.452 103.572 125.69 103.824 126.026 103.824ZM123.954 103.054V102.214C123.38 101.892 122.764 101.724 122.12 101.724C121.112 101.724 120.51 102.116 120.51 102.788C120.51 103.516 121.112 103.88 121.994 103.88C122.778 103.88 123.52 103.516 123.954 103.054ZM129.382 105H127.926V98.126H129.41L131.762 100.982L134.128 98.126H135.612V105H134.156V100.184L132.056 102.718H131.468L129.382 100.184V105ZM145.368 97.944C146.334 97.944 147.132 98.294 147.762 98.994C148.392 99.694 148.7 100.548 148.7 101.57C148.7 102.578 148.392 103.432 147.762 104.132C147.132 104.832 146.334 105.182 145.368 105.182C144.304 105.182 143.492 104.804 142.918 104.062V107.8H141.406V98.126H142.918V99.064C143.492 98.322 144.304 97.944 145.368 97.944ZM144.962 99.274C144.066 99.274 143.296 99.792 142.918 100.506V102.634C143.296 103.32 144.066 103.852 144.962 103.852C145.592 103.852 146.124 103.628 146.544 103.194C146.964 102.746 147.174 102.2 147.174 101.57C147.174 100.926 146.964 100.38 146.544 99.946C146.124 99.498 145.592 99.274 144.962 99.274ZM156.815 103.824C156.969 103.824 157.095 103.796 157.221 103.726V104.874C157.011 105.028 156.717 105.098 156.339 105.098C155.569 105.098 155.079 104.776 154.897 104.118C154.267 104.832 153.427 105.182 152.363 105.182C151.621 105.182 151.005 104.972 150.515 104.566C150.025 104.16 149.787 103.586 149.787 102.872C149.787 102.144 150.053 101.584 150.585 101.192C151.117 100.786 151.775 100.59 152.545 100.59C153.371 100.59 154.113 100.772 154.743 101.122V100.744C154.743 99.75 154.071 99.246 152.727 99.246C151.943 99.246 151.215 99.456 150.557 99.862V98.532C151.243 98.14 152.069 97.944 153.063 97.944C154.967 97.944 156.241 98.896 156.241 100.576V103.138C156.241 103.572 156.479 103.824 156.815 103.824ZM154.743 103.054V102.214C154.169 101.892 153.553 101.724 152.909 101.724C151.901 101.724 151.299 102.116 151.299 102.788C151.299 103.516 151.901 103.88 152.783 103.88C153.567 103.88 154.309 103.516 154.743 103.054ZM166.331 106.89H164.861V105H158.715V98.126H160.227V103.67H163.615V98.126H165.127V103.67H166.331V106.89ZM169.262 105H167.848V98.126H169.36V102.788L173.07 98.126H174.484V105H172.972V100.324L169.262 105ZM179.929 103.852C180.573 103.852 181.105 103.628 181.539 103.194C181.973 102.76 182.183 102.214 182.183 101.556C182.183 100.912 181.973 100.366 181.539 99.932C181.105 99.498 180.573 99.274 179.929 99.274C179.285 99.274 178.739 99.498 178.305 99.932C177.871 100.366 177.661 100.912 177.661 101.556C177.661 102.214 177.871 102.76 178.305 103.194C178.739 103.628 179.271 103.852 179.929 103.852ZM179.929 105.182C178.823 105.182 177.927 104.832 177.213 104.132C176.499 103.432 176.149 102.578 176.149 101.556C176.149 100.548 176.499 99.694 177.213 98.994C177.927 98.294 178.823 97.944 179.929 97.944C181.021 97.944 181.917 98.294 182.631 98.994C183.345 99.694 183.695 100.548 183.695 101.556C183.695 102.564 183.345 103.418 182.631 104.132C181.917 104.832 181.021 105.182 179.929 105.182ZM186.873 105H185.361V98.126H186.873V100.814H190.359V98.126H191.871V105H190.359V102.144H186.873V105ZM200.483 103.824C200.637 103.824 200.763 103.796 200.889 103.726V104.874C200.679 105.028 200.385 105.098 200.007 105.098C199.237 105.098 198.747 104.776 198.565 104.118C197.935 104.832 197.095 105.182 196.031 105.182C195.289 105.182 194.673 104.972 194.183 104.566C193.693 104.16 193.455 103.586 193.455 102.872C193.455 102.144 193.721 101.584 194.253 101.192C194.785 100.786 195.443 100.59 196.213 100.59C197.039 100.59 197.781 100.772 198.411 101.122V100.744C198.411 99.75 197.739 99.246 196.395 99.246C195.611 99.246 194.883 99.456 194.225 99.862V98.532C194.911 98.14 195.737 97.944 196.731 97.944C198.635 97.944 199.909 98.896 199.909 100.576V103.138C199.909 103.572 200.147 103.824 200.483 103.824ZM198.411 103.054V102.214C197.837 101.892 197.221 101.724 196.577 101.724C195.569 101.724 194.967 102.116 194.967 102.788C194.967 103.516 195.569 103.88 196.451 103.88C197.235 103.88 197.977 103.516 198.411 103.054ZM207.367 99.456H204.777L204.749 100.45C204.735 101.458 204.679 102.116 204.441 102.998C204.133 104.216 203.461 104.972 202.075 105.028C201.893 105.028 201.739 105.014 201.599 104.972V103.67C201.697 103.698 201.809 103.712 201.907 103.712C202.901 103.712 203.251 102.76 203.293 100.366L203.335 98.126H208.879V105H207.367V99.456ZM214.593 105H211.037V98.126H212.549V100.212H214.523C216.203 100.212 217.295 101.15 217.295 102.606C217.295 103.292 217.057 103.866 216.581 104.328C216.105 104.776 215.447 105 214.593 105ZM212.549 101.486V103.726H214.355C215.237 103.726 215.769 103.292 215.769 102.606C215.769 101.892 215.251 101.486 214.355 101.486H212.549ZM220.479 105H218.967V98.126H220.479V100.814H223.965V98.126H225.477V105H223.965V102.144H220.479V105ZM230.925 103.852C231.569 103.852 232.101 103.628 232.535 103.194C232.969 102.76 233.179 102.214 233.179 101.556C233.179 100.912 232.969 100.366 232.535 99.932C232.101 99.498 231.569 99.274 230.925 99.274C230.281 99.274 229.735 99.498 229.301 99.932C228.867 100.366 228.657 100.912 228.657 101.556C228.657 102.214 228.867 102.76 229.301 103.194C229.735 103.628 230.267 103.852 230.925 103.852ZM230.925 105.182C229.819 105.182 228.923 104.832 228.209 104.132C227.495 103.432 227.145 102.578 227.145 101.556C227.145 100.548 227.495 99.694 228.209 98.994C228.923 98.294 229.819 97.944 230.925 97.944C232.017 97.944 232.913 98.294 233.627 98.994C234.341 99.694 234.691 100.548 234.691 101.556C234.691 102.564 234.341 103.418 233.627 104.132C232.913 104.832 232.017 105.182 230.925 105.182ZM236.157 107.128H234.967L236.129 103.208H237.865L236.157 107.128ZM5.04 123H1.078V116.126H4.83C6.216 116.126 6.986 116.868 6.986 117.876C6.986 118.562 6.622 119.122 6.104 119.36C7 119.626 7.448 120.214 7.448 121.124C7.448 122.286 6.566 123 5.04 123ZM2.59 120.088V121.782H4.774C5.488 121.782 5.908 121.46 5.908 120.942C5.908 120.396 5.488 120.088 4.774 120.088H2.59ZM2.59 117.344V118.87H4.466C5.124 118.87 5.502 118.576 5.502 118.114C5.502 117.596 5.152 117.344 4.466 117.344H2.59ZM12.4328 123.182C11.4108 123.182 10.5288 122.846 9.80077 122.16C9.08677 121.474 8.72277 120.606 8.72277 119.542C8.72277 118.492 9.08677 117.624 9.80077 116.952C10.5288 116.28 11.4108 115.944 12.4468 115.944C13.2168 115.944 13.9168 116.098 14.5188 116.42V117.722C13.9028 117.428 13.2868 117.274 12.6708 117.274C11.9848 117.274 11.4108 117.484 10.9348 117.918C10.4728 118.352 10.2348 118.898 10.2348 119.556C10.2348 120.214 10.4728 120.774 10.9348 121.208C11.4108 121.642 11.9848 121.852 12.6708 121.852C13.3988 121.852 14.0568 121.684 14.6308 121.334V122.622C13.9728 123 13.2448 123.182 12.4328 123.182ZM15.8595 119.556C15.8595 118.534 16.1815 117.666 16.8395 116.98C17.4975 116.294 18.3375 115.944 19.3875 115.944C20.0875 115.944 20.6895 116.126 21.1935 116.504C22.2155 117.232 22.6495 118.366 22.6495 119.612V120.004H17.3855C17.5675 121.166 18.5755 121.852 19.9755 121.852C20.7735 121.852 21.5015 121.642 22.1875 121.236V122.51C21.5575 122.958 20.7175 123.182 19.6535 123.182C18.5895 123.182 17.6935 122.846 16.9515 122.174C16.2235 121.502 15.8595 120.634 15.8595 119.556ZM17.3995 118.856H21.1235C21.1095 118.436 20.9555 118.058 20.6335 117.722C20.3115 117.386 19.8775 117.218 19.3175 117.218C18.2115 117.218 17.4975 117.96 17.3995 118.856ZM25.8732 123H24.3612V116.126H29.6812V117.456H25.8732V123ZM31.1309 124.89H29.6749V121.67H30.5709C30.9349 121.124 31.1869 120.452 31.3269 119.64C31.4809 118.814 31.5509 117.652 31.5649 116.126H37.0389V121.67H38.2289V124.89H36.8009V123H31.1309V124.89ZM32.1669 121.67H35.5269V117.456H32.9509C32.9509 119.248 32.6849 120.648 32.1669 121.67ZM46.1961 121.824C46.3501 121.824 46.4761 121.796 46.6021 121.726V122.874C46.3921 123.028 46.0981 123.098 45.7201 123.098C44.9501 123.098 44.4601 122.776 44.2781 122.118C43.6481 122.832 42.8081 123.182 41.7441 123.182C41.0021 123.182 40.3861 122.972 39.8961 122.566C39.4061 122.16 39.1681 121.586 39.1681 120.872C39.1681 120.144 39.4341 119.584 39.9661 119.192C40.4981 118.786 41.1561 118.59 41.9261 118.59C42.7521 118.59 43.4941 118.772 44.1241 119.122V118.744C44.1241 117.75 43.4521 117.246 42.1081 117.246C41.3241 117.246 40.5961 117.456 39.9381 117.862V116.532C40.6241 116.14 41.4501 115.944 42.4441 115.944C44.3481 115.944 45.6221 116.896 45.6221 118.576V121.138C45.6221 121.572 45.8601 121.824 46.1961 121.824ZM44.1241 121.054V120.214C43.5501 119.892 42.9341 119.724 42.2901 119.724C41.2821 119.724 40.6801 120.116 40.6801 120.788C40.6801 121.516 41.2821 121.88 42.1641 121.88C42.9481 121.88 43.6901 121.516 44.1241 121.054ZM55.6943 123H51.7323V116.126H55.4843C56.8703 116.126 57.6403 116.868 57.6403 117.876C57.6403 118.562 57.2763 119.122 56.7583 119.36C57.6543 119.626 58.1023 120.214 58.1023 121.124C58.1023 122.286 57.2203 123 55.6943 123ZM53.2443 120.088V121.782H55.4283C56.1423 121.782 56.5623 121.46 56.5623 120.942C56.5623 120.396 56.1423 120.088 55.4283 120.088H53.2443ZM53.2443 117.344V118.87H55.1203C55.7783 118.87 56.1563 118.576 56.1563 118.114C56.1563 117.596 55.8063 117.344 55.1203 117.344H53.2443ZM68.2951 123H66.7831V116.126H68.2951V123ZM63.1151 123H59.8671V116.126H61.3791V118.212H63.0451C64.7251 118.212 65.8171 119.15 65.8171 120.606C65.8171 121.292 65.5791 121.866 65.1031 122.328C64.6271 122.776 63.9691 123 63.1151 123ZM61.3791 119.486V121.726H62.8771C63.7591 121.726 64.2911 121.292 64.2911 120.606C64.2911 119.892 63.7731 119.486 62.8771 119.486H61.3791ZM73.8091 123.182C72.6191 123.182 71.6951 122.776 71.0371 121.964C70.3791 121.138 70.0571 120.046 70.0571 118.66C70.0571 117.078 70.4631 115.902 71.1211 115.132C71.4431 114.74 71.8911 114.404 72.4651 114.124C73.0391 113.844 73.6411 113.62 74.2571 113.466C74.8871 113.312 75.6571 113.158 76.5671 113.004V114.404C75.0971 114.684 74.1451 114.894 73.7391 115.034C72.7031 115.384 72.0171 115.93 71.6951 116.7C71.5551 117.022 71.4711 117.414 71.4431 117.862C72.0171 117.022 73.0391 116.504 74.2291 116.504C75.1251 116.504 75.8671 116.798 76.4551 117.372C77.0431 117.946 77.3371 118.702 77.3371 119.64C77.3371 120.69 77.0011 121.544 76.3151 122.202C75.6431 122.86 74.8031 123.182 73.8091 123.182ZM73.8091 121.852C74.3831 121.852 74.8731 121.656 75.2511 121.264C75.6291 120.872 75.8251 120.368 75.8251 119.752C75.8251 118.576 74.9991 117.806 73.8651 117.806C72.8991 117.806 71.9891 118.422 71.5411 119.192C71.6111 120.872 72.4231 121.852 73.8091 121.852ZM80.4217 123H79.0077V116.126H80.5197V120.788L84.2297 116.126H85.6437V123H84.1317V118.324L80.4217 123ZM91.7607 115.944C92.7267 115.944 93.5247 116.294 94.1547 116.994C94.7847 117.694 95.0927 118.548 95.0927 119.57C95.0927 120.578 94.7847 121.432 94.1547 122.132C93.5247 122.832 92.7267 123.182 91.7607 123.182C90.6967 123.182 89.8847 122.804 89.3107 122.062V125.8H87.7987V116.126H89.3107V117.064C89.8847 116.322 90.6967 115.944 91.7607 115.944ZM91.3547 117.274C90.4587 117.274 89.6887 117.792 89.3107 118.506V120.634C89.6887 121.32 90.4587 121.852 91.3547 121.852C91.9847 121.852 92.5167 121.628 92.9367 121.194C93.3567 120.746 93.5667 120.2 93.5667 119.57C93.5667 118.926 93.3567 118.38 92.9367 117.946C92.5167 117.498 91.9847 117.274 91.3547 117.274ZM103.208 121.824C103.362 121.824 103.488 121.796 103.614 121.726V122.874C103.404 123.028 103.11 123.098 102.732 123.098C101.962 123.098 101.472 122.776 101.29 122.118C100.66 122.832 99.8198 123.182 98.7558 123.182C98.0138 123.182 97.3978 122.972 96.9078 122.566C96.4178 122.16 96.1798 121.586 96.1798 120.872C96.1798 120.144 96.4458 119.584 96.9778 119.192C97.5098 118.786 98.1678 118.59 98.9378 118.59C99.7638 118.59 100.506 118.772 101.136 119.122V118.744C101.136 117.75 100.464 117.246 99.1198 117.246C98.3358 117.246 97.6078 117.456 96.9498 117.862V116.532C97.6358 116.14 98.4618 115.944 99.4558 115.944C101.36 115.944 102.634 116.896 102.634 118.576V121.138C102.634 121.572 102.872 121.824 103.208 121.824ZM101.136 121.054V120.214C100.562 119.892 99.9458 119.724 99.3018 119.724C98.2938 119.724 97.6918 120.116 97.6918 120.788C97.6918 121.516 98.2938 121.88 99.1758 121.88C99.9598 121.88 100.702 121.516 101.136 121.054ZM104.617 119.556C104.617 118.534 104.939 117.666 105.597 116.98C106.255 116.294 107.095 115.944 108.145 115.944C108.845 115.944 109.447 116.126 109.951 116.504C110.973 117.232 111.407 118.366 111.407 119.612V120.004H106.143C106.325 121.166 107.333 121.852 108.733 121.852C109.531 121.852 110.259 121.642 110.945 121.236V122.51C110.315 122.958 109.475 123.182 108.411 123.182C107.347 123.182 106.451 122.846 105.709 122.174C104.981 121.502 104.617 120.634 104.617 119.556ZM106.157 118.856H109.881C109.867 118.436 109.713 118.058 109.391 117.722C109.069 117.386 108.635 117.218 108.075 117.218C106.969 117.218 106.255 117.96 106.157 118.856ZM122.779 123H113.119V116.126H114.631V121.67H117.193V116.126H118.705V121.67H121.267V116.126H122.779V123ZM128.488 123H124.932V116.126H126.444V118.212H128.418C130.098 118.212 131.19 119.15 131.19 120.606C131.19 121.292 130.952 121.866 130.476 122.328C130 122.776 129.342 123 128.488 123ZM126.444 119.486V121.726H128.25C129.132 121.726 129.664 121.292 129.664 120.606C129.664 119.892 129.146 119.486 128.25 119.486H126.444ZM139.718 123.182C138.696 123.182 137.814 122.846 137.086 122.16C136.372 121.474 136.008 120.606 136.008 119.542C136.008 118.492 136.372 117.624 137.086 116.952C137.814 116.28 138.696 115.944 139.732 115.944C140.502 115.944 141.202 116.098 141.804 116.42V117.722C141.188 117.428 140.572 117.274 139.956 117.274C139.27 117.274 138.696 117.484 138.22 117.918C137.758 118.352 137.52 118.898 137.52 119.556C137.52 120.214 137.758 120.774 138.22 121.208C138.696 121.642 139.27 121.852 139.956 121.852C140.684 121.852 141.342 121.684 141.916 121.334V122.622C141.258 123 140.53 123.182 139.718 123.182ZM143.145 119.556C143.145 118.534 143.467 117.666 144.125 116.98C144.783 116.294 145.623 115.944 146.673 115.944C147.373 115.944 147.975 116.126 148.479 116.504C149.501 117.232 149.935 118.366 149.935 119.612V120.004H144.671C144.853 121.166 145.861 121.852 147.261 121.852C148.059 121.852 148.787 121.642 149.473 121.236V122.51C148.843 122.958 148.003 123.182 146.939 123.182C145.875 123.182 144.979 122.846 144.237 122.174C143.509 121.502 143.145 120.634 143.145 119.556ZM144.685 118.856H148.409C148.395 118.436 148.241 118.058 147.919 117.722C147.597 117.386 147.163 117.218 146.603 117.218C145.497 117.218 144.783 117.96 144.685 118.856ZM155.608 115.944C156.574 115.944 157.372 116.294 158.002 116.994C158.632 117.694 158.94 118.548 158.94 119.57C158.94 120.578 158.632 121.432 158.002 122.132C157.372 122.832 156.574 123.182 155.608 123.182C154.544 123.182 153.732 122.804 153.158 122.062V125.8H151.646V116.126H153.158V117.064C153.732 116.322 154.544 115.944 155.608 115.944ZM155.202 117.274C154.306 117.274 153.536 117.792 153.158 118.506V120.634C153.536 121.32 154.306 121.852 155.202 121.852C155.832 121.852 156.364 121.628 156.784 121.194C157.204 120.746 157.414 120.2 157.414 119.57C157.414 118.926 157.204 118.38 156.784 117.946C156.364 117.498 155.832 117.274 155.202 117.274ZM161.082 124.89H159.626V121.67H160.522C160.886 121.124 161.138 120.452 161.278 119.64C161.432 118.814 161.502 117.652 161.516 116.126H166.99V121.67H168.18V124.89H166.752V123H161.082V124.89ZM162.118 121.67H165.478V117.456H162.902C162.902 119.248 162.636 120.648 162.118 121.67ZM177.309 124.89H175.839V123H169.693V116.126H171.205V121.67H174.593V116.126H176.105V121.67H177.309V124.89ZM178.336 119.556C178.336 118.534 178.658 117.666 179.316 116.98C179.974 116.294 180.814 115.944 181.864 115.944C182.564 115.944 183.166 116.126 183.67 116.504C184.692 117.232 185.126 118.366 185.126 119.612V120.004H179.862C180.044 121.166 181.052 121.852 182.452 121.852C183.25 121.852 183.978 121.642 184.664 121.236V122.51C184.034 122.958 183.194 123.182 182.13 123.182C181.066 123.182 180.17 122.846 179.428 122.174C178.7 121.502 178.336 120.634 178.336 119.556ZM179.876 118.856H183.6C183.586 118.436 183.432 118.058 183.11 117.722C182.788 117.386 182.354 117.218 181.794 117.218C180.688 117.218 179.974 117.96 179.876 118.856ZM188.294 123H186.838V116.126H188.322L190.674 118.982L193.04 116.126H194.524V123H193.068V118.184L190.968 120.718H190.38L188.294 118.184V123Z" fill="#1E1E1E"/>
<g clip-path="url(#clip0_102_6318)">
<path fill-rule="evenodd" clip-rule="evenodd" d="M87.5786 60.361C87.2028 61.0629 87.2874 61.1658 86.6955 61.746C86.0848 62.345 86.5076 61.5121 86.1882 62.2888C86.0097 62.7287 86.1506 62.4292 86.2258 63.2808C87.2216 63.2808 87.7008 63.3182 88.5933 63.4212C90.134 63.6083 89.467 63.0188 90.6038 63.2059L95.7239 63.4586C97.0486 63.3463 97.0204 62.2607 96.9265 60.9412C96.8513 59.9399 97.0486 57.3851 97.0486 55.8597C97.0486 52.7621 96.8419 48.3637 96.9547 45.8182C96.9922 44.976 97.0768 44.5455 96.9922 43.5722L97.0862 38.9867C97.0298 38.0976 97.0486 37.218 97.0486 36.3196C95.6582 35.1217 96.297 35.8891 94.3805 35.7861L88.349 35.7394C87.0337 35.8704 83.9992 35.468 82.0263 35.7206C80.805 35.8797 80.6077 35.6271 80.3634 36.5348H79.9125C79.6964 35.9359 80.2037 36.2915 79.2642 35.8329C78.522 35.468 76.3142 35.6364 75.4029 35.6364C75.0459 36.1698 75.1305 35.8704 74.952 36.5348C73.5616 34.9345 69.7473 35.6738 69.3903 35.9359C68.2535 36.7875 69.0239 37.5829 68.6293 39.6324C68.3568 41.0174 68.4977 43.3851 68.6669 45.0041C68.789 46.1177 68.5071 45.1819 68.5071 46.1551C68.5071 47.0816 68.8172 45.865 68.6387 48.869C68.5729 50.0014 68.6387 51.3209 68.6387 52.472L68.6105 55.3918C68.8641 59.2567 68.4414 61.2968 68.5071 63.2246L68.5541 71.8717C68.7232 72.6672 68.8923 72.3583 68.836 73.3222C68.742 74.7821 68.4696 74.8196 68.8642 76.5041C70.3391 76.8503 73.2421 76.9158 74.9802 76.5415C76.0324 76.3169 75.8915 77.2621 77.0376 76.345C78.2496 75.3811 77.3852 73.7527 77.4698 72.4894C77.5731 70.8142 78.2872 69.5415 76.3142 69.0829C77.5168 67.3049 77.4886 68.4747 77.5544 66.8182C77.6013 65.6297 77.404 64.591 77.6671 63.468C83.1349 63.468 79.997 62.4573 82.4021 61.8958C82.5336 62.4386 82.7309 63.1498 83.5576 63.1872C84.7978 63.2434 83.7549 63.2995 84.2059 63.0188C84.995 62.738 84.3092 63.3744 84.8917 62.3543C85.0796 62.0268 85.1266 61.6618 85.4648 61.353L86.3103 60.8476C87.3438 60.2113 85.9064 60.361 87.588 60.3236L87.5786 60.361ZM77.4322 44.4145L83.7737 44.2835C84.8823 44.2554 83.5482 44.4145 84.6474 44.4145C84.995 44.4145 85.5024 44.2367 85.9627 44.246L88.2551 44.4145V52.7434C88.3584 55.5321 88.7624 54.746 82.6182 54.746C75.0647 54.746 78.0993 55.2982 77.5544 50.123C77.2537 47.2594 77.8832 47.9238 77.4322 44.4145Z" fill="#36373B"/>
<path fill-rule="evenodd" clip-rule="evenodd" d="M81.716 40.8208C81.1335 40.8957 81.6503 40.0628 81.716 40.54C81.716 40.54 81.716 40.5962 81.716 40.6056C81.716 40.6243 81.9039 40.7927 81.716 40.8208Z" fill="#36373B"/>
<path fill-rule="evenodd" clip-rule="evenodd" d="M86.9023 42.6177L86.9683 42.6832C86.9683 42.6832 86.874 42.6364 86.9023 42.6177Z" fill="#36373B"/>
<path fill-rule="evenodd" clip-rule="evenodd" d="M90.5095 55.869H90.2841C90.2841 54.8115 90.2465 54.8677 90.0586 54.0722C91.9751 52.7995 90.4626 51.7233 91.8624 50.7032C92.4261 51.115 92.2288 51.3396 92.5388 51.8262C92.0597 52.472 92.2006 52.0602 91.8624 52.5L91.3081 53.5201C90.4626 54.8209 90.5095 53.6511 90.5095 55.869Z" fill="#36373B"/>
<path fill-rule="evenodd" clip-rule="evenodd" d="M88.0293 57.8903C89.213 57.6189 88.997 57.3195 89.8331 56.7673C89.8331 58.1992 90.0774 58.6764 91.4114 58.7887C91.0544 59.2941 91.5711 59.2379 89.8331 59.2379V60.3609C89.307 60.0147 89.1003 59.7526 88.2548 59.6871C88.2548 58.7139 88.3581 58.5828 88.0293 57.8903Z" fill="#36373B"/>
<path fill-rule="evenodd" clip-rule="evenodd" d="M88.0292 59.9117L88.0953 59.9773C88.0953 59.9773 88.0009 59.9305 88.0292 59.9117Z" fill="#36373B"/>
<path fill-rule="evenodd" clip-rule="evenodd" d="M92.5388 61.9331C91.092 61.1751 91.0544 61.4184 90.2841 61.9331C90.2371 61.3248 90.1807 61.3248 90.0586 60.8101H91.4114V59.6871C92.0409 59.9866 91.8436 59.9117 92.7643 59.9117C92.567 60.7727 92.5388 60.8008 92.5388 61.9331Z" fill="#36373B"/>
<path fill-rule="evenodd" clip-rule="evenodd" d="M54.0298 70.599C54.6592 71.0295 54.4807 70.7394 54.5371 71.722C54.8565 71.6565 55.1666 71.5255 55.2041 71.5161C55.4108 71.4787 54.6311 71.0482 55.2981 71.5161C55.2981 71.5161 55.2981 71.5348 55.2981 71.5442L54.3774 72.3583C54.8659 72.8918 54.8941 72.7608 55.0914 72.6859C55.1853 72.6485 55.3263 72.6204 55.5799 72.6859C55.1384 72.4987 55.0726 72.4987 55.0914 72.6859C55.1102 72.845 55.1947 73.1538 55.129 73.6217C55.9933 73.3784 55.7021 73.8744 56.0591 73.107L55.5799 74.7447C55.6645 74.8009 55.8618 75.4934 56.7167 74.7634L56.4536 75.3717C56.4443 75.5682 56.5476 75.8864 56.5946 76.0829H59.6385C59.3379 75.222 60.3807 75.4466 58.7084 75.1003C58.3232 75.0161 57.8911 75.3062 57.7971 75.2968L57.8253 73.8557C56.8388 74.1177 57.8441 74.1645 57.224 73.2942C57.1864 73.238 56.9798 73.0134 56.9328 72.9573C56.9798 72.9105 57.0455 72.7701 57.0737 72.8075C57.0737 72.8075 57.8911 72.1805 57.8347 70.7113C57.3274 70.3182 57.5528 70.599 57.0831 70.3931C56.7637 70.2527 56.4161 70.6458 56.4536 69.5321C56.4536 69.5321 56.5664 69.0081 56.4067 68.6618C55.6363 69.0549 55.5611 68.6337 54.6029 68.6525L54.4713 69.738C54.4713 69.738 54.4338 69.841 54.4244 69.8784L54.058 70.6083L54.0298 70.599Z" fill="#36373B"/>
<path fill-rule="evenodd" clip-rule="evenodd" d="M169.201 40.3717V46.4358C169.201 47.3436 168.947 47.2968 169.097 48.111C169.642 51.0775 169.548 47.9051 169.144 51.115V61.0628C169.341 63.3088 168.834 63.1123 169.576 64.6283C169.802 65.0963 169.689 64.4599 169.698 65.1431C169.698 65.3302 169.642 65.9198 169.642 66.2005C170.422 66.6123 170.469 66.4251 170.845 67.2487L170.967 67.5762C171.286 68.3717 171.211 66.9866 171.211 68.6805C171.211 70.0842 170.159 68.9612 169.464 69.6163C168.721 70.3182 169.285 74.3516 169.294 75.1751C169.341 77.5147 170.854 76.607 172.329 76.607C172.874 76.607 173.015 76.766 173.907 76.766H184.279C185.829 76.766 182.908 76.139 186.102 76.7286H188.751C191.119 76.5976 194.651 77.2246 197.573 76.5508L197.798 73.631C197.798 72.6952 197.648 73.2754 197.667 72.5361C197.695 71.2166 197.93 69.766 197.573 68.2406C195.506 67.7634 183.612 67.9786 183.377 68.016C182.147 68.1845 181.207 67.8476 179.619 68.1003C178.793 68.2313 178.088 68.5775 177.581 68.5682C176.51 68.5588 176.012 68.2219 175.035 68.6898C175.41 67.2767 176.519 68.3717 177.74 67.7915L178.295 65.2554C178.398 64.1979 178.191 65.5548 178.191 64.4318C178.191 62.8035 178.52 64.5535 178.126 62.0174C177.985 61.0722 177.994 61.877 178.229 60.7914C178.229 60.754 178.248 60.6885 178.257 60.6511C178.257 60.6136 178.276 60.5481 178.285 60.5107C178.37 60.0896 178.163 60.4826 178.417 59.9305C180.521 59.9305 181.536 60.5669 184.326 59.7152C185.303 59.4158 184.796 59.5094 185.67 59.8837C186.9 60.4078 186.619 59.9118 187.868 59.9398C192.594 60.0334 192.171 61.7366 192.171 53.1925C192.171 52.4064 191.175 52.2941 190.367 52.2941H180.897C179.356 52.2941 178.191 53.127 178.191 51.6203C178.191 50.4412 178.511 51.4051 178.191 50.0481C176.848 49.7393 176.867 50.3195 176.613 49.3743C177.487 49.3743 177.665 49.5709 178.107 49.0468C178.445 48.6444 178.191 45.2193 178.191 44.4332H196.68C198.202 44.4332 197.714 41.4292 197.676 40.98C197.592 39.6885 197.798 41.0267 197.798 39.9412C197.798 39.0709 197.667 39.492 197.639 38.996C197.554 37.4144 198.249 39.7353 197.347 35.8984C195.76 35.5334 184.458 35.4118 183.762 35.8423C183.293 36.1324 183.565 35.8142 183.368 36.3476C181.761 35.2808 182.466 35.6738 178.182 35.6738C177.045 35.6738 178.483 36.3008 177.064 35.8703C176.406 35.6738 177.675 35.6738 176.604 35.6738C168.665 35.6738 169.154 34.7099 169.031 39.0709C169.013 39.6698 169.163 39.5294 169.163 40.3904L169.201 40.3717Z" fill="#36373B"/>
<path fill-rule="evenodd" clip-rule="evenodd" d="M181.602 37.6765L181.668 37.742C181.668 37.742 181.574 37.6952 181.602 37.6765Z" fill="#36373B"/>
<path fill-rule="evenodd" clip-rule="evenodd" d="M182.053 37.6765C182.316 37.4144 183.34 38.0602 182.335 37.7701C182.306 37.7701 181.658 38.0695 182.053 37.6765Z" fill="#36373B"/>
<path fill-rule="evenodd" clip-rule="evenodd" d="M185.886 74.5107L186.008 74.0334L185.886 74.5107Z" fill="#36373B"/>
<path fill-rule="evenodd" clip-rule="evenodd" d="M185.887 74.5107L185.66 74.7353L185.887 74.5107Z" fill="#36373B"/>
<path fill-rule="evenodd" clip-rule="evenodd" d="M185.66 74.7354L185.407 75.6244C185.209 75.2688 185.115 76.0829 185.313 75.2126C185.407 74.8102 185.153 75.1097 185.66 74.7354Z" fill="#36373B"/>
<path fill-rule="evenodd" clip-rule="evenodd" d="M35.719 41.4947C35.719 42.5709 35.5217 42.7768 35.5217 43.5161C35.5217 44.2554 35.719 44.4613 35.719 45.5375C35.719 47.4466 35.1741 47.4091 35.7753 48.8784C36.2639 50.0763 35.7753 49.3837 35.5499 51.6672C35.4465 52.6779 35.7284 52.865 35.7284 54.0722C35.7284 55.1578 35.5311 55.607 35.5311 56.3182L35.7284 58.7888C35.7284 59.7902 35.5311 59.7995 35.5781 60.5388L35.7284 63.7394C35.8693 64.7875 35.766 64.0201 36.0384 64.5254C36.48 65.349 36.1793 64.5067 36.1793 66.2006C36.2169 66.2193 36.7712 66.472 36.79 66.4907C37.1564 66.7434 37.0436 66.6498 37.2315 66.9492C37.2691 67.0054 37.3443 67.1926 37.3819 67.2581C37.4006 67.3049 37.4194 67.3704 37.4476 67.4172C37.908 68.5308 37.7577 66.8744 37.7577 68.6805C37.7577 70.0843 36.7054 68.9613 36.0102 69.6164C35.5123 70.0936 35.7472 71.591 35.625 72.4051C35.3996 73.968 35.7378 73.6591 35.8223 75.0348C35.9632 77.599 36.8088 76.607 38.885 76.607C39.4299 76.607 39.5709 76.7661 40.4634 76.7661H50.8352C52.1223 76.7661 50.2152 76.1391 52.4699 76.6819L63.6873 76.7661C63.9222 76.4198 64.0725 76.3637 64.2135 75.9426C64.6456 74.6605 64.1383 75.7367 64.1383 74.7447L64.3638 71.3757C64.3638 70.3557 64.1947 71.0669 64.1947 70.2527C64.1947 69.1765 64.6362 70.3837 64.1383 68.2313C62.6539 67.8851 49.5012 67.7915 46.5606 68.0161C45.6399 68.0816 44.7474 68.5402 44.3058 68.5682C43.5449 68.615 42.6523 68.1845 41.6001 68.6899C41.9759 67.2768 43.0845 68.3717 44.3058 67.7915C44.8132 66.734 44.1367 67.3516 44.5971 66.0602C44.9353 65.0963 44.9259 63.0188 44.6628 62.0268C44.4092 61.0254 44.4749 61.8022 44.6534 60.9787C44.6628 60.9225 44.691 60.8664 44.7004 60.8102C44.7662 60.4265 44.7662 60.3329 44.7662 59.9399C47.0679 59.9399 47.3592 60.4733 50.1776 59.9305C51.7277 59.6311 50.9386 59.369 52.0472 59.8557C53.3812 60.4452 52.8833 60.0522 54.0389 59.9773C55.589 59.8744 58.7457 61.091 58.7457 58.5923C58.7457 52.5562 59.4033 52.3035 56.4909 52.3035H47.4719C45.405 52.3035 44.7004 53.1832 44.7944 51.2741L44.7662 50.0575C43.4227 49.7487 43.4415 50.3289 43.1879 49.3837C44.2589 49.3837 44.3716 49.6177 44.7662 48.9252V44.4426H63.2552C63.8846 44.4426 63.9692 44.0963 64.1101 43.722C64.5329 42.6271 64.1759 40.3436 64.2416 38.6498C64.2792 37.7888 64.4201 35.6832 63.0297 35.6832H50.6285C50.0085 35.6832 50.0836 35.861 49.9521 36.357C48.4208 35.3369 49.3696 35.6832 45.2171 35.6832C44.6628 35.6832 44.3434 35.8049 44.0616 35.8142C43.4603 35.8329 43.6012 35.6832 42.7369 35.6832C34.2722 35.6832 36.0572 35.1498 35.7096 38.3503C35.5311 39.9693 35.7472 39.9038 35.7472 41.5228L35.719 41.4947Z" fill="#36373B"/>
<path fill-rule="evenodd" clip-rule="evenodd" d="M48.12 37.6765L48.1861 37.742C48.1861 37.742 48.0917 37.6952 48.12 37.6765Z" fill="#36373B"/>
<path fill-rule="evenodd" clip-rule="evenodd" d="M48.5711 37.6764C48.6745 37.5735 49.8488 37.7981 48.9751 37.7981C48.9751 37.7981 48.9469 37.7981 48.9375 37.7981C48.7402 37.7419 48.1859 38.0601 48.5617 37.6858L48.5711 37.6764Z" fill="#36373B"/>
<path fill-rule="evenodd" clip-rule="evenodd" d="M37.2973 64.4037L37.3633 64.4692C37.3633 64.4692 37.269 64.4224 37.2973 64.4037Z" fill="#36373B"/>
<path fill-rule="evenodd" clip-rule="evenodd" d="M39.7778 67.9973L39.8438 68.0628C39.8438 68.0628 39.7495 68.016 39.7778 67.9973Z" fill="#36373B"/>
<path fill-rule="evenodd" clip-rule="evenodd" d="M52.4045 74.2861C52.2729 74.8476 52.3857 74.5294 52.179 74.9599C52.0099 75.3249 51.9535 75.3717 51.728 75.6337C51.8032 74.7353 51.8596 74.6792 52.4045 74.2861Z" fill="#36373B"/>
<path fill-rule="evenodd" clip-rule="evenodd" d="M1.67257 67.9973C0.535801 67.9973 0.31972 67.8663 0.347904 69.0361L0.545195 70.9171C1.60681 71.4224 2.76237 71.5535 2.79995 69.7941C3.6267 70.0655 2.86572 69.4853 3.17574 70.7674C3.40122 71.6938 3.51396 72.3208 3.92733 72.7139C3.11938 72.7794 3.0724 73.0695 2.29263 72.7887C1.19344 72.377 2.27384 72.2647 0.545195 72.2647C0.141218 73.0321 0.141218 72.77 0.225772 73.7059C0.385484 75.6056 -0.44126 75.9986 1.40012 76.4759L9.10387 76.7379C9.94001 76.5882 9.7803 76.3168 10.4755 75.8583C12.439 77.1684 12.0257 77.1497 13.6322 76.0829C15.2951 77.1871 17.6156 76.7567 20.8474 76.7567C23.4592 76.7567 26.1555 76.8222 28.7578 76.7754C31.4635 76.7286 30.7683 74.3609 30.7683 70.9171C30.7683 68.3903 31.0502 65.2085 30.5428 63.0561C29.19 62.4104 27.9593 62.6069 26.0333 62.6069C20.1428 62.5976 21.0729 62.504 21.0729 67.3235H15.6615C13.7073 67.3235 11.7532 67.3235 9.79909 67.3235C9.79909 63.6738 10.0527 56.5615 9.81788 53.389C9.73333 52.2473 9.86485 52.1444 9.12266 51.6016C10.1091 50.1417 9.67696 51.4051 9.88364 48.1109C9.94001 47.25 9.81788 47.7834 9.83667 46.885C9.85546 45.9866 9.9588 46.4639 9.9588 45.762C9.9588 45.135 9.81788 45.3035 9.80848 44.4051C9.80848 43.5535 9.9588 43.6751 9.90243 43.123C9.86485 42.7112 9.67696 42.3837 9.57361 41.9438H21.0729C21.0729 43.0387 20.8944 44.873 20.9977 45.5187C21.2514 47.1845 24.9247 46.651 27.3956 46.6604C29.5376 46.6698 29.4249 46.885 30.7777 45.9866V33.1845L30.0543 32.5575L5.30837 32.5013C1.86986 32.6417 0.620354 31.8275 0.206982 33.8957C-0.159416 35.7018 0.113034 39.7072 0.113034 48.4572C0.113034 52.0133 0.056665 49.9077 0.385484 52.3502C0.451247 52.8649 0.216377 52.9117 0.122429 53.8476C0.0660599 54.4091 0.103639 55.2887 0.103639 55.8783C0.103639 56.5895 0.235167 57.385 0.244561 57.6938C0.253956 58.1617 0.113034 58.873 0.103639 59.6778C0.103639 61.1377 0.206982 62.7099 0.263351 63.7767C0.30093 64.4786 0.122429 64.5722 0.0942443 65.5267C0.0660599 66.6216 0.263351 66.7059 0.33851 67.5481L1.69136 67.9973H1.67257Z" fill="#36373B"/>
<path fill-rule="evenodd" clip-rule="evenodd" d="M6.63281 68.6712C6.63281 68.1003 6.9913 68.6337 6.76489 68.6712C6.76489 68.6712 6.63281 69.2982 6.63281 68.6712Z" fill="#36373B"/>
<path fill-rule="evenodd" clip-rule="evenodd" d="M7.53467 72.0401C8.3896 70.7674 8.80297 71.3663 10.0149 71.3663C10.1558 71.3663 10.6631 70.861 10.9168 70.6925C11.3771 71.0949 11.255 71.0762 12.0442 71.1417V71.5909C10.9074 71.8529 11.4053 72.1711 9.89277 71.9465C8.37081 71.7313 8.82176 72.012 7.53467 72.0401Z" fill="#36373B"/>
<path fill-rule="evenodd" clip-rule="evenodd" d="M5.50549 71.591C5.56186 71.1324 6.69863 71.6471 5.72157 71.6097C5.63701 71.6097 5.44912 72.0963 5.50549 71.591Z" fill="#36373B"/>
<path fill-rule="evenodd" clip-rule="evenodd" d="M3.47627 74.7353C3.57962 74.6323 4.75397 74.8569 3.88025 74.8569C3.88025 74.8569 3.85206 74.8569 3.84267 74.8569C3.64538 74.8101 3.09108 75.1189 3.47627 74.7446V74.7353Z" fill="#36373B"/>
<path fill-rule="evenodd" clip-rule="evenodd" d="M202.346 41.4947C202.346 41.869 203.069 43.1698 203.248 43.5161C202.43 44.7327 202.308 46.5856 202.449 48.214C202.59 49.7861 202.43 50.8343 202.383 52.3035C202.355 53.1738 202.562 52.8182 202.562 53.857C202.562 55.1484 202.261 55.6538 202.364 56.7394L202.562 63.964C202.562 64.5161 202.43 64.8249 202.43 65.115L202.458 66.7247C202.44 67.7821 202.571 66.6311 202.571 67.3329L202.487 70.2153C202.505 71.0295 202.43 70.0375 202.487 70.7113L202.402 73.5656C202.487 74.3329 202.571 74.9787 202.571 76.1017C203.031 76.4105 203.154 76.7755 203.698 76.7755H210.463C211.646 76.7755 211.365 73.9399 211.365 72.9666V64.4319C211.158 60.464 211.365 55.8878 211.365 51.845C212.06 52.3503 213.112 54.3904 213.751 55.3075C214.634 56.5615 215.348 57.4412 216.137 58.7701C217.124 60.4172 218.871 62.6351 219.623 64.0575C220.243 65.2273 219.914 64.9559 221.051 65.5549C223.052 64.5067 223.785 61.9987 225.222 60.2768L226.425 58.3115C226.969 57.226 226.274 57.75 227.326 56.7674C228.322 55.841 230.361 52.2848 230.746 51.845C230.746 53.1271 230.972 53.3984 230.972 54.7648C230.972 56.6271 230.727 62.4666 230.953 63.9827C231.225 65.8356 230.972 74.4172 230.972 75.8771C230.972 77.4586 234.777 76.6631 235.707 76.6631C237.651 76.6631 239.765 77.4212 239.765 74.9787C239.765 73.996 239.389 74.3517 239.493 73.6872C239.652 72.6297 240.122 73.4439 239.85 71.0575C239.737 70.0656 239.906 70.2902 239.906 69.5883C239.906 67.0148 239.568 66.4252 239.803 64.0107C239.897 63.0656 239.803 63.4025 239.803 62.6164C239.803 61.718 239.981 62.0642 239.981 61.0535C239.981 60.1832 239.737 61.0161 239.69 60.1083C239.652 59.3878 239.981 59.7059 239.981 59.0321L239.756 54.3156C239.756 53.0148 240.122 53.7073 239.822 52.4533L239.925 40.1565C239.925 39.3423 239.765 40.0629 239.765 39.0335C239.765 38.1538 240.122 37.7888 239.859 36.9372C239.69 36.3944 239.258 35.6645 238.638 35.6645C230.962 35.6645 232.287 34.7567 229.816 38.107C229.562 38.4533 229.45 38.7059 229.205 39.0709L222.638 48.7006C222.366 49.0936 222.225 49.2153 221.971 49.6083C221.708 50.0107 221.549 50.3196 221.286 50.722C220.947 50.4974 220.863 50.3383 220.478 50.1792C219.078 49.5803 219.247 50.4693 219.313 49.0468C219.35 48.2514 219.425 48.8035 218.965 48.1391L215.451 42.6083C215.254 42.2621 215.16 42.1311 214.897 41.8129C214.437 41.242 214.625 41.5321 214.249 40.8864L213.037 38.9492C209.448 33.4559 209.946 36.2353 208.433 37.246C208.969 34.9345 206.818 35.6738 203.698 35.6738C201.885 35.6738 202.656 39.1083 202.674 40.0161C202.693 40.7367 202.346 41.0081 202.346 41.5134V41.4947Z" fill="#36373B"/>
<path fill-rule="evenodd" clip-rule="evenodd" d="M233.912 39.9225L233.978 39.988C233.978 39.988 233.884 39.9412 233.912 39.9225Z" fill="#36373B"/>
<path fill-rule="evenodd" clip-rule="evenodd" d="M233.236 40.3717C233.057 41.0455 233.236 40.8677 232.559 41.0455C233.066 40.0816 232.493 40.6337 233.236 40.3717Z" fill="#36373B"/>
<path fill-rule="evenodd" clip-rule="evenodd" d="M211.815 42.1684C212.032 41.3543 211.834 41.5695 212.717 41.4946C212.191 42.2059 212.567 41.7192 211.815 42.1684Z" fill="#36373B"/>
<path fill-rule="evenodd" clip-rule="evenodd" d="M225.569 51.6016C225.87 51.377 225.1 51.377 226.246 51.377C225.973 51.5828 226.499 51.5267 225.569 51.6016Z" fill="#36373B"/>
<path fill-rule="evenodd" clip-rule="evenodd" d="M225.569 51.6016C225.269 51.8262 226.049 51.8262 224.893 51.8262C225.166 51.6203 224.639 51.6764 225.569 51.6016Z" fill="#36373B"/>
<path fill-rule="evenodd" clip-rule="evenodd" d="M132.899 38.7995C134.224 39.1551 132.899 39.5482 134.703 39.6979C134.665 39.7353 134.581 39.7166 134.562 39.7821L133.829 40.6244C133.744 40.8209 133.801 40.8022 133.66 41.1297C133.2 42.1311 132.579 42.6551 132.683 45.0789L132.899 47.1097C132.899 48.0361 132.739 48.111 132.72 48.7099C132.702 49.6177 132.861 49.103 132.805 50.1698L132.89 53.1738C132.89 54.0722 132.73 53.8944 132.73 54.5214L132.664 63.7206C132.664 64.8904 132.946 65.3958 132.796 66.5468L132.664 69.3356C132.664 72.0121 134.722 71.1698 136.046 71.8062C135.699 72.2835 135.407 72.377 134.919 72.7046C134.458 72.3677 134.318 72.0401 133.791 71.5816C132.739 72.2835 132.852 72.7139 132.711 74.127C132.354 77.5802 135.464 76.1391 139.062 76.6538C140.537 76.8597 142.078 76.7099 143.524 76.6912C144.859 76.6725 145.958 76.8597 147.414 76.6257C148.926 76.3824 150.12 76.7567 151.829 76.7567C152.769 76.7567 152.186 76.607 152.929 76.6257L157.015 76.7567C157.015 78.0107 157.307 78.619 157.147 79.8075L157.015 82.5963C157.015 83.6725 158.227 84.0375 159.392 83.8597C162.803 83.345 166.711 85.8062 166.711 80.5749C166.711 78.3663 166.288 78.8343 166.476 77.8891C166.908 75.7367 166.297 72.6859 166.448 70.4399C166.683 66.8463 166.335 68.0254 163.329 67.3236C163.62 66.0789 163.517 66.5843 163.395 65.4706C163.272 64.3476 163.554 64.5629 163.554 63.5054C163.554 62.3824 163.338 62.8971 163.432 61.7928C163.554 60.4265 163.329 60.8757 163.329 59.9118C163.329 58.7794 163.573 58.8637 163.545 57.8998L163.338 53.6417C163.395 52.7621 163.564 52.5655 163.564 51.377C163.564 50.0014 163.357 47.877 163.498 45.9305C163.535 45.3035 163.348 44.0308 163.272 43.123C163.113 41.1578 164.033 40.9519 162.887 38.7995C163.968 38.4065 163.441 36.6658 163.413 34.6538C163.376 31.8557 161.995 32.4452 160.407 32.4452L156.799 32.2861C156.114 32.2861 156.32 32.6417 155.456 32.5482C154.131 32.3984 153.868 33.5121 153.915 34.8597L154.028 37.2835C154.075 38.238 153.84 39.1364 153.915 40.5308L154 47.6899C153.737 49.8984 154.056 51.9853 153.943 54.119L153.99 63.5241C154.018 64.0669 154.103 66.6311 153.765 67.2113C153.455 67.754 153.671 67.3423 152.572 67.3891H148.269C147.048 67.3797 146.343 67.623 145.366 67.5014C142.829 67.1925 142.538 68.0161 141.016 65.7607C142.604 63.9359 142.275 63.2621 142.143 61.7179L141.467 61.2688C142.444 61.0067 142.36 60.6043 142.247 59.6123C142.134 58.5361 142.369 57.2821 142.369 56.103C142.369 55.5508 142.247 55.2327 142.237 54.9519L142.209 38.0696C141.862 35.6364 143.074 35.0843 141.251 33.8677C141.627 33.3062 141.974 32.2955 140.8 32.2955C139.626 32.2955 140.077 33.3623 140.349 33.8677L139.457 34.3262V36.1137C138.789 35.7674 138.151 35.5241 137.643 34.9907C138.113 34.2888 138.771 33.98 138.771 33.1939C138.771 32.1083 137.239 32.6137 136.093 32.4827C134.862 32.3423 134.242 32.0335 133.406 33.0161C132.335 34.2701 132.908 36.7313 132.908 38.8089L132.899 38.7995Z" fill="#36373B"/>
<path fill-rule="evenodd" clip-rule="evenodd" d="M159.956 43.516L161.149 44.1243C161.497 44.3676 161.309 44.2179 161.534 44.4144C160.689 44.3957 160.257 44.3489 159.956 43.516Z" fill="#36373B"/>
<path fill-rule="evenodd" clip-rule="evenodd" d="M134.703 66.2006H135.154V67.5482C134.891 67.1738 135.154 67.9038 134.844 66.9586C134.666 66.4252 134.778 66.8089 134.703 66.2006Z" fill="#36373B"/>
<path fill-rule="evenodd" clip-rule="evenodd" d="M102.685 45.9866C102.685 45.9866 101.708 50.8249 101.887 51.742L101.567 54.0815C100.966 56.6738 101.539 56.0561 100.928 58.8262C100.496 60.7821 100.337 64.1043 100.12 65.2085C99.9044 66.3035 99.7635 67.0053 99.7635 68.2313C98.777 68.0067 98.0724 68.0348 97.9597 69.3543C95.7331 69.5414 96.5411 71.881 96.5411 72.2741C96.5411 72.8262 96.3813 72.9572 96.3813 73.8463C96.3813 74.9037 96.635 75.5214 96.5692 76.504C96.3626 79.639 97.0484 80.7152 96.729 81.361C96.4941 81.8382 96.588 81.5575 96.3813 81.9318C97.1047 83.2981 97.1423 83.2794 98.4106 83.2794C98.9555 83.2794 99.0777 82.9144 99.538 82.6056C101.455 83.6163 100.59 83.2794 104.273 83.2794C105.222 83.2794 105.109 82.4278 105.438 80.8369C105.532 80.397 105.579 80.6872 105.485 80.238C105.335 79.5735 104.912 79.246 104.057 79.012C105.382 78.0949 105.41 79.1898 105.41 76.766C107.956 76.766 108.604 76.8222 108.115 74.7446C109.224 74.8382 108.482 74.8382 109.384 75.2781C110.295 75.7179 109.703 75.1283 110.53 75.9331C112.052 77.4305 111.686 76.5414 113.301 76.5414C114.466 76.5414 114.645 76.7754 115.547 76.7473C116.458 76.7192 115.96 76.6163 116.684 76.6069C117.51 76.5976 116.768 76.766 117.811 76.766C118.854 76.766 119.727 76.3543 120.582 76.7099C121.578 77.1217 121.062 77.0468 121.08 77.5241C121.08 77.7206 121.033 77.7767 121.071 78.2446C121.325 81.4452 120.348 83.5134 123.222 83.5134C123.561 83.5134 123.476 83.0735 124.35 82.8396C124.613 83.5789 124.058 82.9987 125.026 83.5134C126.98 82.4839 125.693 83.2888 126.83 83.2888C129.911 83.2888 128.765 83.4291 129.987 82.615L129.855 75.9051C129.874 75.016 130.052 74.1457 129.855 72.639C129.695 71.3944 130.447 69.1297 129.451 68.3155C128.014 67.1364 127.055 70.2714 127.055 66.004C127.055 65.4519 127.178 65.1337 127.187 64.8529V57.8249C127.29 56.758 127.018 56.627 127.055 55.4479C127.074 54.8583 127.131 54.615 127.121 54.3623L127.055 46.4733C127.055 45.2567 127.328 45.9024 127.131 44.8075C126.858 43.2821 127.281 37.9572 127.168 37.3864C126.999 36.5535 126.689 36.2821 126.379 35.6925H104.508C102.911 38.6872 103.578 41.0267 102.638 44.8449C102.281 46.2861 102.704 44.9198 102.704 46.0241L102.685 45.9866ZM118.243 46.885C118.243 48.5789 117.933 50.4505 118.055 51.5735C118.177 52.7807 118.065 52.2848 118.036 53.4077C117.999 54.8208 118.478 54.2313 118.046 57.9278C117.905 59.1069 118.262 60.7634 118.074 62.4479C117.961 63.496 118.243 63.8329 118.243 64.8623C118.243 69.0922 117.867 68.0441 116.674 68.016L113.292 68.2032C112.249 68.1938 112.907 68.0067 111.93 68.0067C110.276 68.0067 110.577 68.4278 108.773 68.0067L109.497 62.6631C109.75 61.6243 109.515 60.5856 109.731 59.5187C109.985 58.2647 110.013 59.8369 110.239 57.0762L111.488 48.9158C111.516 48.4291 111.432 47.8208 111.488 47.3436C111.704 45.2941 111.939 48.1952 111.939 44.1992H116.449C119.06 44.0495 118.093 44.7794 118.112 45.7433C118.112 46.0334 118.243 46.3422 118.243 46.8944V46.885Z" fill="#36373B"/>
<path fill-rule="evenodd" clip-rule="evenodd" d="M104.264 65.5267C105.081 65.7139 104.987 65.6484 105.391 66.2005C104.489 66.1257 104.658 66.1069 104.264 65.5267Z" fill="#36373B"/>
<path fill-rule="evenodd" clip-rule="evenodd" d="M125.684 81.6979L125.75 81.7634C125.75 81.7634 125.656 81.7166 125.684 81.6979Z" fill="#36373B"/>
<path d="M158.509 11.4358V11.4545C159.712 12.6617 160.294 14.2433 160.285 15.8248C160.266 17.4064 159.655 18.9786 158.444 20.1671L148.626 29.7968L146.803 27.9532C146.803 27.9532 146.869 27.869 146.869 27.7941C146.728 26.9144 146.287 26.4746 145.544 26.4746L145.46 26.5962L144.295 25.4171L147.132 22.6377L148.673 24.1911L155.653 17.3409C156.085 16.9198 156.302 16.3583 156.302 15.8061C156.302 15.2446 156.104 14.6831 155.681 14.2526V14.2433C155.259 13.8128 154.695 13.5976 154.131 13.5976C153.568 13.5976 153.004 13.8034 152.572 14.2246L148.767 17.9492H148.748L144.906 21.6925L142.745 23.8168L140.124 21.1871L138.968 20.0454H138.949V20.0361C138.451 19.5401 138.047 18.9879 137.756 18.389C138.592 17.7152 139.015 17.2754 139.015 17.0695C139.015 16.8823 138.874 16.7139 138.602 16.5735H138.31C138.019 16.6952 137.737 17.0695 137.465 17.6965C137.239 17.0601 137.127 16.3863 137.117 15.7125C137.108 14.131 137.7 12.5494 138.884 11.3422V11.3235H138.893C139.353 10.8649 139.861 10.4906 140.415 10.2005C140.368 10.266 140.312 10.3222 140.321 10.3877L140.462 10.6403C140.716 10.8088 140.932 10.8462 141.101 10.7433C141.185 10.6965 141.26 10.5655 141.336 10.3409C141.373 10.2192 141.251 10.0321 141.232 9.84489C141.88 9.62029 142.557 9.50799 143.233 9.49863C144.69 9.48928 146.146 9.97591 147.311 10.9772L144.445 13.7847C144.088 13.5601 143.675 13.4572 143.271 13.4572C142.707 13.4572 142.144 13.6818 141.721 14.1029V14.1216H141.711C141.298 14.5521 141.091 15.1042 141.091 15.6657C141.091 16.2272 141.317 16.7887 141.749 17.2099H141.768V17.2192L142.773 18.2206L144.06 16.9572C144.314 17.266 144.586 17.4157 144.877 17.4157H145.084C145.216 17.4157 145.281 17.3596 145.281 17.2192C145.206 16.7607 145.056 16.4331 144.821 16.2085L146.136 14.9264L148.748 12.3623H148.767L149.772 11.389C150.984 10.2005 152.572 9.61093 154.159 9.62965C155.738 9.63901 157.316 10.2473 158.5 11.4452L158.509 11.4358ZM148.729 9.6858L145.197 1.46922C146.221 0.168421 147.686 -0.00938696 148.729 -2.86765e-05C149.058 -2.86765e-05 149.434 0.0280462 149.81 0.0841959C149.772 0.149704 149.735 0.215212 149.697 0.271362C149.547 0.458527 149.368 0.570827 149.265 0.729918C149.124 0.945158 149.161 1.18847 149.114 1.35692C149.077 1.48794 148.936 1.56281 148.955 1.66575L149.096 1.91842C149.349 2.08687 149.565 2.1243 149.735 2.02136C149.819 1.97457 149.894 1.84355 149.969 1.61896C150.016 1.47858 149.828 1.23527 149.875 1.02002C149.913 0.832859 150.195 0.673768 150.242 0.430453L150.279 0.177779C150.984 0.364945 151.698 0.739276 152.281 1.47858L148.72 9.66708L148.729 9.6858ZM152.102 11.6885L152.036 11.3422C152.158 11.2018 152.346 11.127 152.468 11.0147C152.638 10.8462 152.741 10.6591 152.891 10.5468C153.098 10.3877 153.333 10.397 153.502 10.3315C153.624 10.2847 153.69 10.135 153.793 10.1444L154.056 10.266C154.244 10.5 154.3 10.7152 154.225 10.893C154.188 10.9772 154.056 11.0708 153.84 11.1644C153.699 11.2299 153.436 11.0615 153.229 11.127C153.042 11.1831 152.919 11.4826 152.675 11.5481C152.497 11.5949 152.299 11.651 152.093 11.6978L152.102 11.6885ZM157.983 16.2928C158.087 16.6203 158.274 16.7794 158.566 16.7794L158.894 16.3957V16.0775C158.894 15.9371 158.829 15.8716 158.688 15.8716H158.274C158.105 15.8716 158.002 16.012 157.983 16.2928Z" fill="#F1292C"/>
</g>
<defs>
<clipPath id="clip0_102_6318">
<rect width="240" height="84" fill="white"/>
</clipPath>
</defs>
</svg>
