<svg width="26" height="20" viewBox="0 0 26 20" fill="none" xmlns="http://www.w3.org/2000/svg">
<path fill-rule="evenodd" clip-rule="evenodd" d="M2.08816 1.15011L9.9021 8.91894C11.6063 10.6094 14.3922 10.6108 16.0978 8.91894L23.9118 1.15011C23.9905 1.07191 23.979 0.943118 23.8877 0.879847C23.0907 0.327472 22.121 0 21.0765 0H4.92348C3.87889 0 2.90921 0.327529 2.11223 0.879847C2.02094 0.943118 2.00947 1.07191 2.08816 1.15011ZM0 4.89288C0 4.07659 0.203653 3.30532 0.562376 2.62741C0.618472 2.52136 0.760662 2.49992 0.845908 2.58463L8.56093 10.2518C11.004 12.6833 14.9945 12.6847 17.4391 10.2518L25.1541 2.58463C25.2393 2.49992 25.3815 2.52136 25.4376 2.62741C25.7963 3.30532 26 4.07664 26 4.89288V15.1071C26 17.8071 23.79 20 21.0765 20H4.92348C2.21007 20 0 17.8071 0 15.1071V4.89288Z" fill="#F1292C"/>
</svg>
