<svg width="28" height="26" viewBox="0 0 28 26" fill="none" xmlns="http://www.w3.org/2000/svg">
<path d="M22.2031 0H15.6406C12.4747 0 9.89844 2.72185 9.89844 6.06667C9.89844 9.1178 12.0414 11.6501 14.8203 12.0716V14.7333C14.8203 15.0837 15.0198 15.4003 15.3266 15.534C15.6292 15.6674 15.9841 15.5958 16.2206 15.3461L19.2615 12.1333H22.2031C25.369 12.1333 28 9.41148 28 6.06667C28 2.72185 25.369 0 22.2031 0ZM15.6406 6.93322C15.1875 6.93322 14.8203 6.54518 14.8203 6.06655C14.8203 5.58792 15.1875 5.19988 15.6406 5.19988C16.0937 5.19988 16.4609 5.58792 16.4609 6.06655C16.4609 6.54518 16.0937 6.93322 15.6406 6.93322ZM18.9219 6.93322C18.4687 6.93322 18.1016 6.54518 18.1016 6.06655C18.1016 5.58792 18.4687 5.19988 18.9219 5.19988C19.3749 5.19988 19.7422 5.58792 19.7422 6.06655C19.7422 6.54518 19.3749 6.93322 18.9219 6.93322ZM22.2031 6.93322C21.75 6.93322 21.3828 6.54518 21.3828 6.06655C21.3828 5.58792 21.75 5.19988 22.2031 5.19988C22.6562 5.19988 23.0234 5.58792 23.0234 6.06655C23.0234 6.54518 22.6562 6.93322 22.2031 6.93322Z" fill="#F1292C"/>
<path d="M18.4297 26C19.7867 26 20.8906 24.8337 20.8906 23.4V19.9333C20.8906 19.5601 20.6647 19.2291 20.3299 19.1115L15.4195 17.3782C15.1792 17.2927 14.9165 17.3316 14.705 17.4789L12.6173 18.949C10.4063 17.8352 7.7828 15.0634 6.72853 12.7274L8.12 10.5218C8.26016 10.2992 8.29544 10.0207 8.21532 9.76687L6.5747 4.57906C6.46341 4.22535 6.15016 3.98667 5.79688 3.98667H2.46094C1.10392 3.98667 0 5.14078 0 6.57448C0 16.5597 8.97848 26 18.4297 26Z" fill="#F1292C"/>
</svg>
