<svg width="28" height="26" viewBox="0 0 28 26" fill="none" xmlns="http://www.w3.org/2000/svg">
<path d="M22.9879 6.39454C22.8773 6.20305 22.7412 6.06977 22.5318 5.99621L16.4604 3.81217C16.4834 3.16036 16.2444 2.50153 15.7418 2.00537C14.7079 0.98302 12.9809 1.06485 12.0586 2.22859L5.99648 0.0483302C5.99594 0.0477897 5.99539 0.0477897 5.99539 0.0477897C5.57074 -0.102137 5.14287 0.12005 4.98313 0.445035L1.14133 7.9846H2.97828L5.71977 2.60368L8.49461 7.9846H10.3359L7.39211 2.27561L11.5374 3.76677C11.5544 4.80836 12.2277 5.68976 13.1797 6.02269V21.7688C13.1797 22.2163 13.5472 22.5795 14 22.5795C14.4528 22.5795 14.8203 22.2163 14.8203 21.7688V6.02269C15.2199 5.88357 15.5792 5.64404 15.8605 5.3217L21.1072 7.20902L17.6537 13.9892H19.4906L22.2551 8.56182L25.0217 13.9892H26.8587L22.9879 6.39454ZM14.5819 4.30183C14.2609 4.61909 13.7391 4.61909 13.4181 4.30183C13.0971 3.98458 13.0971 3.46897 13.4181 3.15171C13.7391 2.83446 14.2609 2.83446 14.5819 3.15171C14.9034 3.46946 14.9039 3.98355 14.5819 4.30183Z" fill="black"/>
<path d="M14.9659 21.0121H13.0342C10.7035 21.0121 8.80742 22.886 8.80742 25.1893C8.80742 25.637 9.1747 26 9.62773 26H18.3723C18.8253 26 19.1926 25.637 19.1926 25.1893C19.1926 22.886 17.2965 21.0121 14.9659 21.0121Z" fill="black"/>
<path d="M27.1797 15.6104H17.3332C16.8802 15.6104 16.5129 15.9734 16.5129 16.4211C16.5129 19.5511 19.0894 22.0974 22.2564 22.0974C25.4235 22.0974 28 19.5511 28 16.4211C28 15.9734 27.6327 15.6104 27.1797 15.6104Z" fill="black"/>
<path d="M10.6695 9.60612H0.820312C0.367281 9.60612 0 9.9691 0 10.4168C0 13.5475 2.57715 16.0945 5.74492 16.0945C8.9127 16.0945 11.4898 13.5475 11.4898 10.4168C11.4898 9.9691 11.1226 9.60612 10.6695 9.60612Z" fill="black"/>
</svg>
